<svg xmlns="http://www.w3.org/2000/svg" width="44" height="44" viewBox="0 0 44 44">
  <g fill="none" fill-rule="evenodd">
    <path fill="#ECECEC" d="M22,44 C9.86926027,44 0,34.1307397 0,22 C0,9.86926027 9.86926027,0 22,0 C34.1307397,0 44,9.86926027 44,22 C44,34.1307397 34.1307397,44 22,44"/>
    <polygon fill="#021725" points="28.541 10.247 19.235 10.247 19.235 17.297 12.185 17.297 12.185 24.347 6.738 24.347 6.738 27.872 15.71 27.872 15.71 20.822 22.76 20.822 22.76 13.772 28.541 13.764"/>
    <polygon fill="#F49E00" points="21.481 34.959 33.129 23.31 33.129 27.899 36.659 27.899 36.659 17.309 26.07 17.309 26.07 20.839 30.658 20.839 19.01 32.488"/>
  </g>
</svg>
