<?xml version="1.0" encoding="UTF-8"?>
<!DOCTYPE svg PUBLIC "-//W3C//DTD SVG 1.1//EN" "http://www.w3.org/Graphics/SVG/1.1/DTD/svg11.dtd">
<!-- Creator: CorelDRAW 2017 -->
<svg xmlns="http://www.w3.org/2000/svg" xml:space="preserve" width="440px" height="38px" version="1.1" style="shape-rendering:geometricPrecision; text-rendering:geometricPrecision; image-rendering:optimizeQuality; fill-rule:evenodd; clip-rule:evenodd"
viewBox="0 0 440 38"
 xmlns:xlink="http://www.w3.org/1999/xlink">
 <defs>
  <style type="text/css">
   <![CDATA[
    .fil0 {fill:#003893;fill-rule:nonzero}
    .fil1 {fill:crimson;fill-rule:nonzero}
   ]]>
  </style>
 </defs>
 <g id="Layer_x0020_1">
  <metadata id="CorelCorpID_0Corel-Layer"/>
  <path class="fil0" d="M17.87 20.79c-0.68,-0.74 -1.46,-1.31 -2.37,-1.7 -0.9,-0.4 -1.88,-0.59 -2.93,-0.59 -1.8,0 -3.25,0.58 -4.34,1.75 -1.09,1.17 -1.63,2.72 -1.63,4.65 0,2.01 0.55,3.59 1.64,4.74 1.1,1.15 2.6,1.72 4.54,1.72 1.07,0 2.03,-0.2 2.87,-0.6 0.85,-0.4 1.58,-1.01 2.22,-1.82l0 5.09c-0.81,0.46 -1.69,0.8 -2.62,1.03 -0.93,0.23 -1.92,0.35 -2.96,0.35 -3.04,0 -5.51,-0.97 -7.42,-2.9 -1.91,-1.92 -2.86,-4.43 -2.86,-7.5 0,-3.11 0.99,-5.62 2.96,-7.53 1.99,-1.91 4.57,-2.86 7.77,-2.86 1,0 1.93,0.09 2.77,0.29 0.84,0.2 1.63,0.5 2.36,0.92l0 4.96z"/>
  <path id="1" class="fil0" d="M41.01 25.6l-15.45 0c0.11,1.81 0.65,3.22 1.62,4.23 0.96,1.02 2.24,1.53 3.85,1.53 1.43,0 2.62,-0.3 3.57,-0.9 0.95,-0.6 1.78,-1.57 2.49,-2.9l3.71 2.08c-1.08,1.95 -2.43,3.39 -4.03,4.34 -1.6,0.95 -3.49,1.43 -5.65,1.43 -3.1,0 -5.56,-0.95 -7.4,-2.83 -1.83,-1.9 -2.75,-4.42 -2.75,-7.57 0,-3.03 0.95,-5.52 2.85,-7.47 1.89,-1.95 4.32,-2.92 7.3,-2.92 3.11,0 5.54,0.89 7.28,2.67 1.74,1.77 2.61,4.27 2.61,7.47l0 0.84zm-4.59 -2.97c-0.18,-1.38 -0.7,-2.44 -1.59,-3.17 -0.88,-0.73 -2.09,-1.09 -3.62,-1.09 -1.46,0 -2.63,0.36 -3.51,1.06 -0.88,0.71 -1.5,1.77 -1.85,3.2l10.57 0z"/>
  <path id="2" class="fil0" d="M45.61 34.61l0 -19.33 4.16 0 0 3.18c0.89,-1.34 1.92,-2.31 3.12,-2.93 1.2,-0.61 2.65,-0.91 4.37,-0.91 1.44,0 2.67,0.22 3.68,0.68 1.01,0.46 1.8,1.13 2.37,2.03 0.35,0.53 0.59,1.15 0.74,1.86 0.15,0.7 0.23,1.94 0.23,3.71l0 11.71 -4.47 0 0 -9.92c0,-2.54 -0.31,-4.23 -0.93,-5.06 -0.62,-0.84 -1.72,-1.26 -3.3,-1.26 -1.03,0 -1.95,0.19 -2.76,0.57 -0.81,0.39 -1.45,0.92 -1.91,1.61 -0.32,0.47 -0.55,1.06 -0.68,1.79 -0.13,0.72 -0.19,1.88 -0.19,3.47l0 8.8 -4.43 0z"/>
  <polygon id="3" class="fil0" points="71.2,34.61 71.2,19.17 67.82,19.17 67.82,15.28 71.2,15.28 71.2,7.98 75.63,7.98 75.63,15.28 79.01,15.28 79.01,19.17 75.63,19.17 75.63,34.61 "/>
  <path id="4" class="fil0" d="M101.43 25.6l-15.44 0c0.11,1.81 0.64,3.22 1.61,4.23 0.96,1.02 2.25,1.53 3.86,1.53 1.42,0 2.61,-0.3 3.56,-0.9 0.95,-0.6 1.78,-1.57 2.49,-2.9l3.72 2.08c-1.09,1.95 -2.43,3.39 -4.04,4.34 -1.6,0.95 -3.49,1.43 -5.64,1.43 -3.11,0 -5.57,-0.95 -7.41,-2.83 -1.83,-1.9 -2.75,-4.42 -2.75,-7.57 0,-3.03 0.95,-5.52 2.85,-7.47 1.89,-1.95 4.33,-2.92 7.31,-2.92 3.11,0 5.54,0.89 7.28,2.67 1.74,1.77 2.6,4.27 2.6,7.47l0 0.84zm-4.59 -2.97c-0.17,-1.38 -0.7,-2.44 -1.58,-3.17 -0.89,-0.73 -2.1,-1.09 -3.63,-1.09 -1.45,0 -2.62,0.36 -3.51,1.06 -0.87,0.71 -1.49,1.77 -1.85,3.2l10.57 0z"/>
  <path id="5" class="fil0" d="M110.46 18.37c0.48,-1.28 1.11,-2.22 1.89,-2.84 0.78,-0.61 1.75,-0.91 2.91,-0.91 0.63,0 1.24,0.07 1.85,0.22 0.6,0.14 1.2,0.37 1.78,0.64l-1.59 3.77c-0.38,-0.27 -0.79,-0.47 -1.23,-0.6 -0.45,-0.13 -0.94,-0.19 -1.48,-0.19 -1.48,0 -2.53,0.58 -3.17,1.76 -0.64,1.17 -0.96,3.15 -0.96,5.92l0 8.47 -4.42 0 0 -19.37 4.42 0 0 3.13z"/>
  <path id="6" class="fil0" d="M122.03 34.61l0 -15.44 -3.39 0 0 -3.89 3.39 0 0 -5.18c0,-2.56 0.54,-4.46 1.6,-5.68 1.07,-1.22 2.72,-1.83 4.97,-1.83 0.47,0 0.96,0.03 1.46,0.1 0.51,0.07 1.02,0.18 1.53,0.32l0 3.99c-0.35,-0.2 -0.71,-0.35 -1.07,-0.46 -0.35,-0.1 -0.72,-0.15 -1.08,-0.15 -1.07,0 -1.83,0.33 -2.29,0.98 -0.46,0.65 -0.69,1.75 -0.69,3.31l0 4.6 4.65 0 0 3.89 -4.65 0 0 15.44 -4.43 0z"/>
  <path id="7" class="fil0" d="M149.39 25.01c0,-1.79 -0.58,-3.32 -1.74,-4.56 -1.15,-1.25 -2.56,-1.87 -4.23,-1.87 -1.66,0 -3.07,0.62 -4.23,1.87 -1.17,1.24 -1.74,2.77 -1.74,4.56 0,1.8 0.57,3.32 1.74,4.57 1.16,1.24 2.57,1.86 4.23,1.86 1.65,0 3.07,-0.62 4.23,-1.86 1.16,-1.25 1.74,-2.77 1.74,-4.57zm-16.62 -0.04c0,-1.41 0.27,-2.75 0.81,-4 0.53,-1.26 1.31,-2.38 2.31,-3.36 0.99,-0.96 2.13,-1.7 3.43,-2.22 1.29,-0.52 2.64,-0.77 4.06,-0.77 1.45,0 2.82,0.25 4.11,0.77 1.28,0.52 2.43,1.28 3.46,2.28 1.01,1 1.78,2.12 2.32,3.37 0.53,1.24 0.79,2.56 0.79,3.93 0,1.43 -0.26,2.77 -0.78,4.02 -0.52,1.25 -1.29,2.35 -2.3,3.32 -1.06,1.02 -2.23,1.79 -3.53,2.31 -1.28,0.52 -2.65,0.79 -4.07,0.79 -1.4,0 -2.75,-0.27 -4.04,-0.79 -1.29,-0.52 -2.44,-1.28 -3.45,-2.27 -1.02,-1.01 -1.79,-2.13 -2.33,-3.39 -0.52,-1.24 -0.79,-2.58 -0.79,-3.99z"/>
  <path id="8" class="fil0" d="M163.16 18.37c0.48,-1.28 1.11,-2.22 1.89,-2.84 0.78,-0.61 1.75,-0.91 2.91,-0.91 0.63,0 1.24,0.07 1.85,0.22 0.6,0.14 1.2,0.37 1.78,0.64l-1.59 3.77c-0.38,-0.27 -0.79,-0.47 -1.23,-0.6 -0.45,-0.13 -0.94,-0.19 -1.48,-0.19 -1.48,0 -2.53,0.58 -3.17,1.76 -0.64,1.17 -0.96,3.15 -0.96,5.92l0 8.47 -4.43 0 0 -19.37 4.43 0 0 3.13z"/>
  <path id="9" class="fil0" d="M309.01 31.11l3.67 -2.01c0.27,0.97 0.78,1.71 1.51,2.21 0.73,0.51 1.68,0.76 2.83,0.76 0.99,0 1.77,-0.23 2.34,-0.68 0.56,-0.46 0.84,-1.08 0.84,-1.88 0,-1.04 -1,-1.94 -3.02,-2.69 -0.67,-0.24 -1.2,-0.44 -1.56,-0.61 -2.07,-0.86 -3.51,-1.73 -4.34,-2.61 -0.82,-0.88 -1.23,-1.96 -1.23,-3.22 0,-1.72 0.68,-3.12 2.03,-4.2 1.35,-1.07 3.14,-1.61 5.37,-1.61 1.5,0 2.78,0.28 3.84,0.83 1.07,0.55 1.84,1.33 2.33,2.35l-3.14 2.17c-0.23,-0.61 -0.63,-1.1 -1.21,-1.46 -0.58,-0.37 -1.24,-0.55 -2,-0.55 -0.84,0 -1.52,0.2 -2.03,0.6 -0.5,0.41 -0.76,0.94 -0.76,1.61 0,1 1.14,1.92 3.41,2.75 0.73,0.26 1.29,0.47 1.67,0.63 1.79,0.71 3.06,1.5 3.83,2.4 0.77,0.89 1.15,2 1.15,3.33 0,1.93 -0.7,3.44 -2.1,4.54 -1.4,1.09 -3.33,1.64 -5.79,1.64 -1.89,0 -3.46,-0.36 -4.71,-1.06 -1.25,-0.71 -2.22,-1.79 -2.93,-3.24z"/>
  <polygon id="10" class="fil0" points="330.04,34.61 330.04,19.17 326.66,19.17 326.66,15.28 330.04,15.28 330.04,7.98 334.47,7.98 334.47,15.28 337.85,15.28 337.85,19.17 334.47,19.17 334.47,34.61 "/>
  <path id="11" class="fil0" d="M345.96 15.28l0 10.9c0,1.87 0.39,3.22 1.16,4.04 0.77,0.81 2.03,1.22 3.77,1.22 1.74,0 2.99,-0.41 3.76,-1.22 0.77,-0.82 1.16,-2.17 1.16,-4.04l0 -10.9 4.43 0 0 9.57c0,3.7 -0.74,6.38 -2.22,8.05 -1.48,1.67 -3.85,2.51 -7.09,2.51 -3.3,0 -5.69,-0.83 -7.18,-2.49 -1.48,-1.65 -2.22,-4.35 -2.22,-8.07l0 -9.57 4.43 0z"/>
  <path id="12" class="fil0" d="M380.11 24.89c0,-2 -0.47,-3.56 -1.4,-4.67 -0.93,-1.12 -2.24,-1.68 -3.91,-1.68 -1.67,0 -2.99,0.58 -3.94,1.73 -0.96,1.14 -1.44,2.74 -1.44,4.78 0,2.06 0.46,3.64 1.38,4.76 0.93,1.12 2.24,1.67 3.92,1.67 1.6,0 2.9,-0.6 3.9,-1.81 0.99,-1.2 1.49,-2.79 1.49,-4.78zm-0.13 -21.88l4.43 0 0 31.6 -4.43 0 0 -2.49c-0.78,1.1 -1.71,1.93 -2.76,2.47 -1.06,0.55 -2.26,0.82 -3.63,0.82 -2.72,0 -4.88,-0.93 -6.45,-2.81 -1.57,-1.86 -2.36,-4.42 -2.36,-7.67 0,-3.09 0.8,-5.58 2.41,-7.47 1.61,-1.9 3.7,-2.84 6.29,-2.84 1.57,0 2.92,0.32 4.05,0.98 1.12,0.66 1.94,1.6 2.45,2.83l0 -15.42z"/>
  <path id="13" class="fil0" d="M390.13 6.93c0,-0.74 0.28,-1.39 0.83,-1.94 0.54,-0.54 1.2,-0.81 1.96,-0.81 0.79,0 1.45,0.26 1.97,0.78 0.53,0.53 0.79,1.19 0.79,1.97 0,0.8 -0.26,1.46 -0.79,1.99 -0.54,0.54 -1.19,0.81 -1.97,0.81 -0.76,0 -1.42,-0.28 -1.96,-0.83 -0.55,-0.55 -0.83,-1.2 -0.83,-1.97zm0.58 27.68l0 -19.33 4.43 0 0 19.33 -4.43 0z"/>
  <path id="14" class="fil0" d="M420.07 25.6l-15.45 0c0.11,1.81 0.65,3.22 1.62,4.23 0.96,1.02 2.24,1.53 3.85,1.53 1.43,0 2.62,-0.3 3.57,-0.9 0.95,-0.6 1.78,-1.57 2.49,-2.9l3.71 2.08c-1.08,1.95 -2.43,3.39 -4.03,4.34 -1.6,0.95 -3.49,1.43 -5.65,1.43 -3.1,0 -5.56,-0.95 -7.4,-2.83 -1.83,-1.9 -2.75,-4.42 -2.75,-7.57 0,-3.03 0.95,-5.52 2.85,-7.47 1.89,-1.95 4.32,-2.92 7.3,-2.92 3.11,0 5.54,0.89 7.28,2.67 1.74,1.77 2.61,4.27 2.61,7.47l0 0.84zm-4.59 -2.97c-0.18,-1.38 -0.7,-2.44 -1.59,-3.17 -0.88,-0.73 -2.09,-1.09 -3.62,-1.09 -1.46,0 -2.63,0.36 -3.51,1.06 -0.88,0.71 -1.5,1.77 -1.85,3.2l10.57 0z"/>
  <path id="15" class="fil0" d="M422.46 31.11l3.67 -2.01c0.27,0.97 0.78,1.71 1.51,2.21 0.73,0.51 1.68,0.76 2.83,0.76 0.99,0 1.77,-0.23 2.34,-0.68 0.56,-0.46 0.84,-1.08 0.84,-1.88 0,-1.04 -1,-1.94 -3.01,-2.69 -0.68,-0.24 -1.21,-0.44 -1.57,-0.61 -2.07,-0.86 -3.51,-1.73 -4.34,-2.61 -0.82,-0.88 -1.23,-1.96 -1.23,-3.22 0,-1.72 0.68,-3.12 2.03,-4.2 1.35,-1.07 3.14,-1.61 5.37,-1.61 1.5,0 2.78,0.28 3.84,0.83 1.07,0.55 1.84,1.33 2.33,2.35l-3.14 2.17c-0.23,-0.61 -0.63,-1.1 -1.21,-1.46 -0.58,-0.37 -1.24,-0.55 -2,-0.55 -0.84,0 -1.52,0.2 -2.03,0.6 -0.5,0.41 -0.76,0.94 -0.76,1.61 0,1 1.14,1.92 3.41,2.75 0.73,0.26 1.29,0.47 1.67,0.63 1.79,0.71 3.06,1.5 3.83,2.4 0.77,0.89 1.15,2 1.15,3.33 0,1.93 -0.7,3.44 -2.1,4.54 -1.4,1.09 -3.33,1.64 -5.79,1.64 -1.89,0 -3.46,-0.36 -4.71,-1.06 -1.25,-0.71 -2.22,-1.79 -2.93,-3.24z"/>
  <path id="16" class="fil1" d="M192.31 34.61l-4.43 0 0 -2.49c-0.78,1.1 -1.71,1.93 -2.76,2.47 -1.06,0.55 -2.26,0.82 -3.62,0.82 -2.73,0 -4.89,-0.93 -6.46,-2.81 -1.57,-1.86 -2.35,-4.42 -2.35,-7.67 0,-3.09 0.8,-5.58 2.4,-7.47 1.61,-1.9 3.71,-2.84 6.29,-2.84 1.58,0 2.93,0.32 4.05,0.98 1.12,0.66 1.94,1.6 2.45,2.83l0 -3.15 4.43 0 0 19.33zm-4.3 -9.72c0,-2 -0.47,-3.56 -1.4,-4.67 -0.93,-1.12 -2.23,-1.68 -3.9,-1.68 -1.68,0 -3,0.58 -3.95,1.73 -0.96,1.14 -1.44,2.74 -1.44,4.78 0,2.06 0.46,3.64 1.38,4.76 0.93,1.12 2.24,1.67 3.92,1.67 1.6,0 2.89,-0.6 3.89,-1.81 1,-1.21 1.5,-2.81 1.5,-4.78z"/>
  <path id="17" class="fil1" d="M202.68 24.89c0,1.97 0.51,3.57 1.53,4.78 1.01,1.21 2.32,1.81 3.92,1.81 1.67,0 2.97,-0.55 3.89,-1.67 0.92,-1.12 1.38,-2.7 1.38,-4.76 0,-2.04 -0.49,-3.64 -1.45,-4.78 -0.95,-1.15 -2.26,-1.73 -3.94,-1.73 -1.67,0 -2.97,0.56 -3.91,1.68 -0.94,1.11 -1.42,2.67 -1.42,4.67zm0.15 -21.88l0 15.42c0.52,-1.21 1.34,-2.15 2.48,-2.82 1.13,-0.66 2.49,-0.99 4.07,-0.99 2.57,0 4.66,0.94 6.26,2.84 1.59,1.89 2.39,4.38 2.39,7.47 0,3.25 -0.79,5.81 -2.36,7.67 -1.56,1.88 -3.72,2.81 -6.45,2.81 -1.36,0 -2.57,-0.27 -3.63,-0.82 -1.05,-0.54 -1.97,-1.37 -2.76,-2.47l0 2.49 -4.42 0 0 -31.6 4.42 0z"/>
  <path id="18" class="fil1" d="M227.13 18.37c0.48,-1.28 1.11,-2.22 1.89,-2.84 0.78,-0.61 1.75,-0.91 2.91,-0.91 0.63,0 1.24,0.07 1.85,0.22 0.6,0.14 1.2,0.37 1.79,0.64l-1.6 3.77c-0.38,-0.27 -0.79,-0.47 -1.23,-0.6 -0.44,-0.13 -0.94,-0.19 -1.48,-0.19 -1.48,0 -2.53,0.58 -3.17,1.76 -0.64,1.17 -0.96,3.15 -0.96,5.92l0 8.47 -4.42 0 0 -19.37 4.42 0 0 3.13z"/>
  <path id="19" class="fil1" d="M253.28 25.01c0,-1.79 -0.58,-3.32 -1.74,-4.56 -1.15,-1.25 -2.57,-1.87 -4.24,-1.87 -1.65,0 -3.06,0.62 -4.23,1.87 -1.16,1.24 -1.74,2.77 -1.74,4.56 0,1.8 0.58,3.32 1.74,4.57 1.17,1.24 2.58,1.86 4.23,1.86 1.66,0 3.07,-0.62 4.24,-1.86 1.16,-1.25 1.74,-2.77 1.74,-4.57zm-16.62 -0.04c0,-1.41 0.27,-2.75 0.81,-4 0.53,-1.26 1.3,-2.38 2.31,-3.36 0.99,-0.96 2.13,-1.7 3.43,-2.22 1.29,-0.52 2.64,-0.77 4.05,-0.77 1.46,0 2.83,0.25 4.12,0.77 1.28,0.52 2.43,1.28 3.45,2.28 1.02,1 1.79,2.12 2.33,3.37 0.53,1.24 0.79,2.56 0.79,3.93 0,1.43 -0.26,2.77 -0.78,4.02 -0.53,1.25 -1.29,2.35 -2.3,3.32 -1.06,1.02 -2.23,1.79 -3.53,2.31 -1.29,0.52 -2.65,0.79 -4.08,0.79 -1.39,0 -2.74,-0.27 -4.03,-0.79 -1.3,-0.52 -2.44,-1.28 -3.45,-2.27 -1.02,-1.01 -1.79,-2.13 -2.33,-3.39 -0.53,-1.24 -0.79,-2.58 -0.79,-3.99z"/>
  <path id="20" class="fil1" d="M280.83 34.61l-4.43 0 0 -2.49c-0.79,1.1 -1.71,1.93 -2.76,2.47 -1.06,0.55 -2.26,0.82 -3.63,0.82 -2.73,0 -4.88,-0.93 -6.45,-2.81 -1.57,-1.86 -2.36,-4.42 -2.36,-7.67 0,-3.09 0.8,-5.58 2.41,-7.47 1.61,-1.9 3.7,-2.84 6.28,-2.84 1.58,0 2.93,0.32 4.05,0.98 1.12,0.66 1.94,1.6 2.46,2.83l0 -3.15 4.43 0 0 19.33zm-4.3 -9.72c0,-2 -0.47,-3.56 -1.4,-4.67 -0.94,-1.12 -2.24,-1.68 -3.91,-1.68 -1.67,0 -2.99,0.58 -3.94,1.73 -0.96,1.14 -1.44,2.74 -1.44,4.78 0,2.06 0.46,3.64 1.38,4.76 0.93,1.12 2.23,1.67 3.92,1.67 1.59,0 2.89,-0.6 3.88,-1.81 1,-1.21 1.51,-2.81 1.51,-4.78z"/>
  <path id="21" class="fil1" d="M300.83 24.89c0,-2 -0.47,-3.56 -1.4,-4.67 -0.94,-1.12 -2.24,-1.68 -3.91,-1.68 -1.67,0 -2.99,0.58 -3.94,1.73 -0.96,1.14 -1.44,2.74 -1.44,4.78 0,2.06 0.46,3.64 1.38,4.76 0.93,1.12 2.23,1.67 3.92,1.67 1.6,0 2.9,-0.6 3.9,-1.81 0.98,-1.2 1.49,-2.79 1.49,-4.78zm-0.13 -21.88l4.43 0 0 31.6 -4.43 0 0 -2.49c-0.79,1.1 -1.71,1.93 -2.76,2.47 -1.06,0.55 -2.26,0.82 -3.63,0.82 -2.73,0 -4.88,-0.93 -6.45,-2.81 -1.57,-1.86 -2.36,-4.42 -2.36,-7.67 0,-3.09 0.8,-5.58 2.41,-7.47 1.61,-1.9 3.7,-2.84 6.28,-2.84 1.58,0 2.93,0.32 4.05,0.98 1.12,0.66 1.94,1.6 2.46,2.83l0 -15.42z"/>
 </g>
</svg>
