<?xml version="1.0" encoding="UTF-8"?>
<!DOCTYPE svg PUBLIC "-//W3C//DTD SVG 1.1//EN" "http://www.w3.org/Graphics/SVG/1.1/DTD/svg11.dtd">
<!-- Creator: CorelDRAW 2017 -->
<svg xmlns="http://www.w3.org/2000/svg" xml:space="preserve" width="688px" height="36px" version="1.1" style="shape-rendering:geometricPrecision; text-rendering:geometricPrecision; image-rendering:optimizeQuality; fill-rule:evenodd; clip-rule:evenodd"
viewBox="0 0 688 36"
 xmlns:xlink="http://www.w3.org/1999/xlink">
 <defs>
  <style type="text/css">
   <![CDATA[
    .fil0 {fill:#424242;fill-rule:nonzero}
   ]]>
  </style>
 </defs>
 <g id="Layer_x0020_1">
  <metadata id="CorelCorpID_0Corel-Layer"/>
  <path class="fil0" d="M3.86 3.43c0,-0.35 -0.07,-0.6 -0.22,-0.73 -0.14,-0.13 -0.46,-0.24 -0.94,-0.34l-1.8 -0.38 0 -0.98 13.45 0 15.63 19.72 0 -17.34c0,-0.35 -0.07,-0.59 -0.21,-0.7 -0.15,-0.11 -0.45,-0.22 -0.9,-0.32l-1.75 -0.38 0 -0.98 7.38 0 0 0.98 -1.8 0.38c-0.48,0.1 -0.8,0.21 -0.94,0.34 -0.15,0.13 -0.22,0.38 -0.22,0.73l0 31.56 -1.75 0 -24.37 -30.83 0 28.45c0,0.36 0.07,0.6 0.21,0.71 0.15,0.11 0.45,0.22 0.9,0.31l1.75 0.39 0 0.97 -7.38 0 0 -0.97 1.8 -0.39c0.48,-0.09 0.8,-0.21 0.94,-0.34 0.15,-0.13 0.22,-0.37 0.22,-0.72l0 -29.14z"/>
  <path id="1" class="fil0" d="M38.82 33.63c0.49,-0.09 0.8,-0.21 0.95,-0.34 0.15,-0.13 0.22,-0.37 0.22,-0.72l0 -29.14c0,-0.35 -0.07,-0.6 -0.22,-0.73 -0.15,-0.13 -0.46,-0.24 -0.95,-0.34l-1.79 -0.38 0 -0.98 29.91 0 0 9.47 -1.22 0c-0.68,-2.1 -1.32,-3.69 -1.91,-4.76 -0.6,-1.06 -1.44,-1.87 -2.51,-2.42 -1.06,-0.55 -2.57,-0.83 -4.51,-0.83l-6.9 0 0 14.42 12.53 0 0 1.46 -12.53 0 0 15.2 7.38 0c1.91,0 3.42,-0.29 4.52,-0.88 1.1,-0.58 1.97,-1.42 2.6,-2.52 0.63,-1.1 1.28,-2.71 1.96,-4.81l1.27 0 0 9.66 -30.59 0 0 -0.97 1.79 -0.39z"/>
  <path id="2" class="fil0" d="M104.33 11.25c0,2.62 -0.63,4.67 -1.87,6.14 -1.25,1.47 -3.18,2.53 -5.81,3.16 -2.62,0.63 -6.13,0.94 -10.53,0.94l-1.27 0 0 11.03c0,0.35 0.08,0.6 0.22,0.73 0.15,0.13 0.46,0.24 0.95,0.34l2.09 0.43 0 0.97 -16.12 0 0 -0.97 1.79 -0.39c0.49,-0.09 0.8,-0.21 0.95,-0.34 0.15,-0.13 0.22,-0.37 0.22,-0.72l0 -29.14c0,-0.35 -0.07,-0.6 -0.22,-0.73 -0.15,-0.13 -0.46,-0.24 -0.95,-0.34l-1.79 -0.38 0 -0.98 14.13 0c4.4,0 7.91,0.32 10.53,0.95 2.63,0.63 4.56,1.68 5.81,3.16 1.24,1.47 1.87,3.52 1.87,6.14zm-19.48 8.79l1.7 0c1.91,0 3.41,-0.29 4.5,-0.88 1.08,-0.58 1.87,-1.5 2.35,-2.76 0.49,-1.27 0.73,-2.98 0.73,-5.15 0,-2.17 -0.24,-3.88 -0.73,-5.15 -0.48,-1.26 -1.27,-2.18 -2.35,-2.76 -1.09,-0.59 -2.59,-0.88 -4.5,-0.88l-1.7 0 0 17.58z"/>
  <path id="3" class="fil0" d="M127.05 34.02l2.09 -0.19c0.45,-0.07 0.68,-0.24 0.68,-0.54 0,-0.16 -0.05,-0.35 -0.15,-0.58l-3.2 -7.09 -11.27 0 -2.91 7.09c-0.1,0.23 -0.15,0.42 -0.15,0.58 0,0.3 0.23,0.47 0.68,0.54l2.09 0.19 0 0.97 -7.38 0 0 -0.97 1.8 -0.19c0.39,-0.03 0.66,-0.13 0.82,-0.29 0.16,-0.16 0.34,-0.46 0.54,-0.88l13.45 -32.19 1.55 0 14.23 32.19c0.19,0.42 0.37,0.72 0.53,0.88 0.16,0.16 0.44,0.26 0.83,0.29l1.79 0.19 0 0.97 -16.02 0 0 -0.97zm-1.21 -9.85l-5.25 -11.61 -4.81 11.61 10.06 0z"/>
  <path id="4" class="fil0" d="M148.17 3.43c0,-0.35 -0.07,-0.6 -0.22,-0.73 -0.14,-0.13 -0.46,-0.24 -0.94,-0.34l-1.8 -0.38 0 -0.98 16.12 0 0 0.98 -2.09 0.43c-0.48,0.1 -0.8,0.21 -0.94,0.34 -0.15,0.13 -0.22,0.37 -0.22,0.73l0 30.06 6.11 0c1.91,0 3.4,-0.29 4.47,-0.88 1.07,-0.58 1.9,-1.41 2.5,-2.47 0.6,-1.07 1.27,-2.69 2.02,-4.86l1.36 0 0 9.66 -29.33 0 0 -0.97 1.8 -0.39c0.48,-0.09 0.8,-0.21 0.94,-0.34 0.15,-0.13 0.22,-0.37 0.22,-0.72l0 -29.14z"/>
  <path id="5" class="fil0" d="M193.52 33.63c0.49,-0.09 0.8,-0.21 0.95,-0.34 0.15,-0.13 0.22,-0.37 0.22,-0.72l0 -29.14c0,-0.35 -0.07,-0.6 -0.22,-0.73 -0.15,-0.13 -0.46,-0.24 -0.95,-0.34l-1.79 -0.38 0 -0.98 29.91 0 0 9.47 -1.22 0c-0.68,-2.1 -1.32,-3.69 -1.91,-4.76 -0.6,-1.06 -1.44,-1.87 -2.51,-2.42 -1.06,-0.55 -2.57,-0.83 -4.51,-0.83l-6.9 0 0 14.42 12.53 0 0 1.46 -12.53 0 0 15.2 7.38 0c1.91,0 3.42,-0.29 4.52,-0.88 1.1,-0.58 1.97,-1.42 2.6,-2.52 0.63,-1.1 1.28,-2.71 1.96,-4.81l1.27 0 0 9.66 -30.59 0 0 -0.97 1.79 -0.39z"/>
  <path id="6" class="fil0" d="M228.48 33.63c0.49,-0.09 0.8,-0.21 0.95,-0.34 0.15,-0.13 0.22,-0.37 0.22,-0.72l0 -29.14c0,-0.35 -0.07,-0.6 -0.22,-0.73 -0.15,-0.13 -0.46,-0.24 -0.95,-0.34l-1.79 -0.38 0 -0.98 14.86 0c6.79,0 11.97,1.28 15.53,3.84 3.56,2.56 5.34,6.94 5.34,13.16 0,6.21 -1.78,10.6 -5.34,13.16 -3.56,2.55 -8.74,3.83 -15.53,3.83l-14.86 0 0 -0.97 1.79 -0.39zm11.07 -0.09l2 0c2.68,0 4.75,-0.48 6.21,-1.44 1.46,-0.95 2.48,-2.53 3.06,-4.73 0.58,-2.2 0.87,-5.32 0.87,-9.37 0,-4.05 -0.29,-7.17 -0.87,-9.37 -0.58,-2.2 -1.6,-3.78 -3.06,-4.74 -1.46,-0.95 -3.53,-1.43 -6.21,-1.43l-2 0 0 31.08z"/>
  <path id="7" class="fil0" d="M297.92 22.37c-0.07,4.08 -1.17,7.3 -3.3,9.66 -2.14,2.36 -5.59,3.55 -10.34,3.55 -5.18,0 -9.01,-1.06 -11.49,-3.16 -2.48,-2.1 -3.71,-5.52 -3.71,-10.24l0 -18.75c0,-0.35 -0.08,-0.6 -0.22,-0.73 -0.15,-0.13 -0.46,-0.24 -0.95,-0.34l-1.8 -0.38 0 -0.98 15.74 0 0 0.98 -1.75 0.38c-0.45,0.1 -0.75,0.21 -0.9,0.32 -0.15,0.11 -0.22,0.35 -0.22,0.7l0 19.67c0,2.75 0.2,4.89 0.58,6.41 0.39,1.52 1.15,2.64 2.26,3.37 1.12,0.73 2.76,1.1 4.93,1.1 3.11,0 5.49,-1.02 7.14,-3.06 1.65,-2.04 2.47,-4.75 2.47,-8.11l0 -19.33c0,-0.35 -0.07,-0.6 -0.21,-0.73 -0.15,-0.13 -0.46,-0.24 -0.95,-0.34l-1.8 -0.38 0 -0.98 7.38 0 0 0.98 -1.74 0.38c-0.46,0.1 -0.76,0.21 -0.9,0.32 -0.15,0.11 -0.22,0.35 -0.22,0.7l0 18.99z"/>
  <path id="8" class="fil0" d="M326.32 33.15c1.79,0 3.4,-0.29 4.84,-0.88 1.44,-0.58 2.8,-1.39 4.1,-2.42l0.97 1.07c-1.42,1.32 -3.28,2.43 -5.56,3.32 -2.28,0.89 -4.8,1.34 -7.55,1.34 -5.44,0 -9.91,-1.44 -13.4,-4.3 -3.5,-2.87 -5.25,-7.45 -5.25,-13.77 0,-5.86 1.74,-10.17 5.22,-12.94 3.48,-2.76 8.04,-4.15 13.67,-4.15 2.27,0 4.5,0.21 6.7,0.63 2.2,0.42 3.94,0.94 5.2,1.56l-0.68 8.35 -1.36 0c-0.91,-2.75 -2.13,-4.96 -3.67,-6.63 -1.53,-1.67 -3.58,-2.5 -6.14,-2.5 -2.94,0 -5.06,1.21 -6.33,3.62 -1.28,2.41 -1.92,6.01 -1.92,10.8 0,5.67 0.82,9.9 2.47,12.7 1.65,2.8 4.55,4.2 8.69,4.2z"/>
  <path id="9" class="fil0" d="M358.76 34.02l2.09 -0.19c0.45,-0.07 0.68,-0.24 0.68,-0.54 0,-0.16 -0.05,-0.35 -0.15,-0.58l-3.2 -7.09 -11.27 0 -2.91 7.09c-0.1,0.23 -0.15,0.42 -0.15,0.58 0,0.3 0.23,0.47 0.68,0.54l2.09 0.19 0 0.97 -7.38 0 0 -0.97 1.8 -0.19c0.39,-0.03 0.66,-0.13 0.82,-0.29 0.17,-0.16 0.34,-0.46 0.54,-0.88l13.45 -32.19 1.55 0 14.23 32.19c0.19,0.42 0.37,0.72 0.53,0.88 0.16,0.16 0.44,0.26 0.83,0.29l1.79 0.19 0 0.97 -16.02 0 0 -0.97zm-1.21 -9.85l-5.25 -11.61 -4.8 11.61 10.05 0z"/>
  <path id="10" class="fil0" d="M398.19 32.57c0,0.35 0.07,0.59 0.22,0.72 0.14,0.13 0.46,0.25 0.94,0.34l1.8 0.39 0 0.97 -15.83 0 0 -0.97 1.8 -0.39c0.48,-0.09 0.8,-0.21 0.94,-0.34 0.15,-0.13 0.22,-0.37 0.22,-0.72l0 -30.21 -1.11 0c-1.98,0 -3.51,0.33 -4.59,0.98 -1.09,0.64 -1.91,1.48 -2.48,2.52 -0.57,1.04 -1.27,2.69 -2.11,4.95l-1.07 0 0 -9.81 32.63 0 0 9.81 -1.07 0c-0.84,-2.26 -1.54,-3.91 -2.11,-4.95 -0.57,-1.04 -1.39,-1.88 -2.48,-2.52 -1.08,-0.65 -2.61,-0.98 -4.58,-0.98l-1.12 0 0 30.21z"/>
  <path id="11" class="fil0" d="M415.23 3.43c0,-0.35 -0.07,-0.6 -0.22,-0.73 -0.14,-0.13 -0.46,-0.24 -0.94,-0.34l-1.8 -0.38 0 -0.98 15.83 0 0 0.98 -1.8 0.38c-0.48,0.1 -0.8,0.21 -0.94,0.34 -0.15,0.13 -0.22,0.38 -0.22,0.73l0 29.14c0,0.35 0.07,0.59 0.22,0.72 0.14,0.13 0.46,0.25 0.94,0.34l1.8 0.39 0 0.97 -15.83 0 0 -0.97 1.8 -0.39c0.48,-0.09 0.8,-0.21 0.94,-0.34 0.15,-0.13 0.22,-0.37 0.22,-0.72l0 -29.14z"/>
  <path id="12" class="fil0" d="M450.29 0.42c5.47,0 9.84,1.39 13.11,4.15 3.27,2.77 4.9,7.25 4.9,13.43 0,6.18 -1.63,10.66 -4.9,13.42 -3.27,2.77 -7.64,4.16 -13.11,4.16 -5.47,0 -9.84,-1.39 -13.11,-4.16 -3.27,-2.76 -4.91,-7.24 -4.91,-13.42 0,-6.15 1.65,-10.62 4.93,-13.4 3.29,-2.79 7.65,-4.18 13.09,-4.18zm0 33.75c1.97,0 3.49,-0.54 4.54,-1.6 1.05,-1.07 1.77,-2.76 2.16,-5.05 0.39,-2.3 0.58,-5.47 0.58,-9.52 0,-4.05 -0.19,-7.22 -0.58,-9.52 -0.39,-2.3 -1.11,-3.98 -2.16,-5.05 -1.05,-1.07 -2.57,-1.6 -4.54,-1.6 -1.97,0 -3.49,0.53 -4.54,1.6 -1.05,1.07 -1.77,2.75 -2.16,5.05 -0.39,2.3 -0.58,5.47 -0.58,9.52 0,4.05 0.19,7.22 0.58,9.52 0.39,2.29 1.11,3.98 2.16,5.05 1.05,1.06 2.57,1.6 4.54,1.6z"/>
  <path id="13" class="fil0" d="M475.25 3.43c0,-0.35 -0.08,-0.6 -0.22,-0.73 -0.15,-0.13 -0.46,-0.24 -0.95,-0.34l-1.79 -0.38 0 -0.98 13.45 0 15.63 19.72 0 -17.34c0,-0.35 -0.07,-0.59 -0.22,-0.7 -0.14,-0.11 -0.44,-0.22 -0.9,-0.32l-1.74 -0.38 0 -0.98 7.38 0 0 0.98 -1.8 0.38c-0.49,0.1 -0.8,0.21 -0.95,0.34 -0.14,0.13 -0.22,0.38 -0.22,0.73l0 31.56 -1.74 0 -24.38 -30.83 0 28.45c0,0.36 0.07,0.6 0.22,0.71 0.15,0.11 0.44,0.22 0.9,0.31l1.75 0.39 0 0.97 -7.38 0 0 -0.97 1.79 -0.39c0.49,-0.09 0.8,-0.21 0.95,-0.34 0.14,-0.13 0.22,-0.37 0.22,-0.72l0 -29.14z"/>
  <path id="14" class="fil0" d="M543.76 32.57c0,0.35 0.07,0.59 0.22,0.72 0.15,0.13 0.46,0.25 0.95,0.34l1.79 0.39 0 0.97 -15.83 0 0 -0.97 1.8 -0.39c0.49,-0.09 0.8,-0.21 0.95,-0.34 0.14,-0.13 0.22,-0.37 0.22,-0.72l0 -30.21 -1.12 0c-1.98,0 -3.51,0.33 -4.59,0.98 -1.08,0.64 -1.91,1.48 -2.48,2.52 -0.56,1.04 -1.27,2.69 -2.11,4.95l-1.07 0 0 -9.81 32.63 0 0 9.81 -1.07 0c-0.84,-2.26 -1.54,-3.91 -2.11,-4.95 -0.56,-1.04 -1.39,-1.88 -2.47,-2.52 -1.09,-0.65 -2.62,-0.98 -4.59,-0.98l-1.12 0 0 30.21z"/>
  <path id="15" class="fil0" d="M560.8 3.43c0,-0.35 -0.07,-0.6 -0.22,-0.73 -0.14,-0.13 -0.46,-0.24 -0.94,-0.34l-1.8 -0.38 0 -0.98 15.83 0 0 0.98 -1.8 0.38c-0.48,0.1 -0.8,0.21 -0.94,0.34 -0.15,0.13 -0.22,0.38 -0.22,0.73l0 29.14c0,0.35 0.07,0.59 0.22,0.72 0.14,0.13 0.46,0.25 0.94,0.34l1.8 0.39 0 0.97 -15.83 0 0 -0.97 1.8 -0.39c0.48,-0.09 0.8,-0.21 0.94,-0.34 0.15,-0.13 0.22,-0.37 0.22,-0.72l0 -29.14z"/>
  <path id="16" class="fil0" d="M580.91 32.61c0,0.36 0.07,0.6 0.21,0.71 0.15,0.11 0.45,0.22 0.9,0.31l1.75 0.39 0 0.97 -7.38 0 0 -0.97 1.8 -0.39c0.48,-0.09 0.8,-0.21 0.94,-0.34 0.15,-0.13 0.22,-0.37 0.22,-0.72l0 -29.14c0,-0.35 -0.07,-0.6 -0.22,-0.73 -0.14,-0.13 -0.46,-0.24 -0.94,-0.34l-1.8 -0.38 0 -0.98 12.43 0 10 21.61 8.94 -21.61 12.82 0 0 0.98 -1.8 0.38c-0.49,0.1 -0.8,0.21 -0.95,0.34 -0.14,0.13 -0.22,0.38 -0.22,0.73l0 29.14c0,0.35 0.08,0.59 0.22,0.72 0.15,0.13 0.46,0.25 0.95,0.34l1.8 0.39 0 0.97 -15.74 0 0 -0.97 1.75 -0.39c0.46,-0.09 0.75,-0.2 0.9,-0.31 0.15,-0.11 0.22,-0.35 0.22,-0.71l0 -27.48 -12.33 29.86 -1.46 0 -13.01 -28.6 0 26.22z"/>
  <path id="17" class="fil0" d="M624.9 33.63c0.48,-0.09 0.8,-0.21 0.95,-0.34 0.14,-0.13 0.21,-0.37 0.21,-0.72l0 -29.14c0,-0.35 -0.07,-0.6 -0.21,-0.73 -0.15,-0.13 -0.47,-0.24 -0.95,-0.34l-1.8 -0.38 0 -0.98 29.91 0 0 9.47 -1.21 0c-0.68,-2.1 -1.32,-3.69 -1.92,-4.76 -0.6,-1.06 -1.43,-1.87 -2.5,-2.42 -1.07,-0.55 -2.57,-0.83 -4.52,-0.83l-6.89 0 0 14.42 12.53 0 0 1.46 -12.53 0 0 15.2 7.38 0c1.91,0 3.42,-0.29 4.51,-0.88 1.11,-0.58 1.97,-1.42 2.6,-2.52 0.63,-1.1 1.29,-2.71 1.97,-4.81l1.26 0 0 9.66 -30.59 0 0 -0.97 1.8 -0.39z"/>
  <path id="18" class="fil0" d="M672.1 34.26c2.1,0 3.73,-0.4 4.9,-1.21 1.16,-0.81 1.75,-1.97 1.75,-3.49 0,-1.23 -0.27,-2.25 -0.8,-3.06 -0.54,-0.81 -1.35,-1.56 -2.46,-2.24 -1.1,-0.68 -2.71,-1.49 -4.85,-2.42 -2.72,-1.2 -4.82,-2.26 -6.31,-3.19 -1.49,-0.92 -2.67,-2.08 -3.52,-3.49 -0.86,-1.41 -1.29,-3.2 -1.29,-5.37 0,-3.1 1.1,-5.44 3.3,-7.01 2.2,-1.57 5.7,-2.36 10.49,-2.36 2.14,0 4.2,0.21 6.19,0.63 1.99,0.42 3.67,0.96 5.03,1.61l-1.17 7.42 -1.31 0c-0.62,-1.97 -1.25,-3.54 -1.92,-4.71 -0.66,-1.16 -1.56,-2.06 -2.69,-2.69 -1.14,-0.63 -2.64,-0.95 -4.52,-0.95 -4.27,0 -6.41,1.39 -6.41,4.18 0,1.13 0.26,2.07 0.78,2.81 0.52,0.75 1.29,1.42 2.33,2.02 1.03,0.6 2.75,1.48 5.15,2.65l0.97 0.43c3.01,1.46 5.23,2.64 6.67,3.55 1.44,0.9 2.59,2.03 3.43,3.37 0.84,1.35 1.26,3.09 1.26,5.22 0,3.17 -1.19,5.57 -3.57,7.19 -2.38,1.62 -6.11,2.43 -11.19,2.43 -2.04,0 -4.3,-0.23 -6.78,-0.68 -2.47,-0.46 -4.39,-1.01 -5.75,-1.65l1.31 -8.55 1.26 0c0.42,2.52 1.06,4.48 1.9,5.88 0.84,1.39 1.89,2.35 3.15,2.88 1.27,0.54 2.82,0.8 4.67,0.8z"/>
 </g>
</svg>
