<?xml version="1.0" encoding="UTF-8"?>
<!DOCTYPE svg PUBLIC "-//W3C//DTD SVG 1.1//EN" "http://www.w3.org/Graphics/SVG/1.1/DTD/svg11.dtd">
<!-- Creator: CorelDRAW 2017 -->
<svg xmlns="http://www.w3.org/2000/svg" xml:space="preserve" width="655px" height="62px" version="1.1" style="shape-rendering:geometricPrecision; text-rendering:geometricPrecision; image-rendering:optimizeQuality; fill-rule:evenodd; clip-rule:evenodd"
viewBox="0 0 655 62"
 xmlns:xlink="http://www.w3.org/1999/xlink">
 <defs>
  <style type="text/css">
   <![CDATA[
    .str0 {stroke:#545151;stroke-linecap:square;stroke-linejoin:round;stroke-miterlimit:114.593}
    .fil0 {fill:none}
    .fil2 {fill:#545151}
    .fil1 {fill:#F49000}
    .fil3 {fill:white;fill-rule:nonzero}
   ]]>
  </style>
 </defs>
 <g id="Layer_x0020_1">
  <metadata id="CorelCorpID_0Corel-Layer"/>
  <rect class="fil0" x="-1.5" y="-1" width="658" height="64"/>
  <g id="_1447855881904">
   <g>
    <polygon class="fil1" points="31.7,60.84 75.56,1.16 20.65,44.93 "/>
    <polygon class="fil2 str0" points="0.49,15.88 43.46,44.84 31.7,60.84 "/>
   </g>
   <g>
    <polygon class="fil3" points="97.37,30.27 102.73,30.27 89.76,59.48 85.46,59.48 72.49,30.27 77.97,30.27 87.67,52.84 "/>
    <polygon id="1" class="fil3" points="105.52,59.48 105.52,30.27 110.8,30.27 110.8,59.48 "/>
    <path id="2" class="fil3" d="M126.96 59.85c-2.23,0 -4.33,-0.3 -6.28,-0.9 -1.95,-0.6 -3.61,-1.46 -4.97,-2.59l1.8 -3.85c1.42,1.06 2.9,1.85 4.44,2.36 1.54,0.5 3.23,0.76 5.06,0.76 2.01,0 3.58,-0.36 4.68,-1.07 1.11,-0.71 1.66,-1.71 1.66,-3 0,-1.09 -0.51,-1.93 -1.54,-2.52 -1.02,-0.59 -2.7,-1.14 -5.05,-1.66 -3.66,-0.8 -6.32,-1.82 -7.98,-3.08 -1.67,-1.26 -2.5,-3.09 -2.5,-5.5 0,-1.72 0.47,-3.25 1.39,-4.6 0.93,-1.34 2.25,-2.39 3.95,-3.15 1.71,-0.77 3.68,-1.15 5.92,-1.15 2.04,0 3.99,0.3 5.83,0.92 1.84,0.62 3.35,1.47 4.52,2.56l-1.76 3.86c-2.59,-2.08 -5.46,-3.12 -8.59,-3.12 -1.89,0 -3.37,0.39 -4.46,1.17 -1.1,0.78 -1.64,1.84 -1.64,3.18 0,1.15 0.48,2.03 1.45,2.63 0.97,0.6 2.63,1.16 4.98,1.68 2.42,0.58 4.4,1.2 5.93,1.87 1.53,0.67 2.7,1.53 3.52,2.58 0.82,1.06 1.23,2.38 1.23,3.96 0,1.75 -0.47,3.28 -1.39,4.58 -0.93,1.3 -2.27,2.3 -4.02,3.01 -1.74,0.72 -3.8,1.07 -6.18,1.07z"/>
    <polygon id="3" class="fil3" points="143.46,59.48 143.46,30.27 148.74,30.27 148.74,59.48 "/>
    <path id="4" class="fil3" d="M167.98 59.85c-2.81,0 -5.26,-0.61 -7.35,-1.82 -2.09,-1.22 -3.7,-2.96 -4.83,-5.22 -1.13,-2.25 -1.7,-4.91 -1.7,-7.98 0,-3.03 0.56,-5.68 1.68,-7.94 1.12,-2.25 2.72,-3.98 4.81,-5.19 2.09,-1.2 4.55,-1.8 7.39,-1.8 2.83,0 5.3,0.6 7.38,1.8 2.09,1.21 3.69,2.94 4.79,5.19 1.11,2.26 1.66,4.91 1.66,7.94 0,3.07 -0.56,5.73 -1.68,7.98 -1.12,2.26 -2.71,4 -4.79,5.22 -2.07,1.21 -4.53,1.82 -7.36,1.82zm0 -4.22c2.7,0 4.8,-0.93 6.3,-2.79 1.5,-1.86 2.25,-4.53 2.25,-8.01 0,-3.44 -0.75,-6.09 -2.25,-7.94 -1.5,-1.84 -3.6,-2.77 -6.3,-2.77 -2.7,0 -4.81,0.92 -6.31,2.75 -1.5,1.83 -2.25,4.49 -2.25,7.96 0,3.48 0.75,6.15 2.25,8.01 1.5,1.86 3.61,2.79 6.31,2.79z"/>
    <polygon id="5" class="fil3" points="206.82,30.27 211.77,30.27 211.77,59.48 207.84,59.48 192.13,39.01 192.13,59.48 187.21,59.48 187.21,30.27 191.14,30.27 206.82,50.7 "/>
    <polygon id="6" class="fil3" points="229.33,59.48 229.33,30.27 248.82,30.27 248.82,34.45 234.49,34.45 234.49,42.54 247.96,42.54 247.96,46.72 234.49,46.72 234.49,55.3 248.82,55.3 248.82,59.48 "/>
    <path id="7" class="fil3" d="M253.69 30.27l10.72 0c4.78,0 8.48,1.27 11.11,3.81 2.64,2.55 3.95,6.13 3.95,10.75 0,4.65 -1.31,8.26 -3.95,10.82 -2.63,2.55 -6.33,3.83 -11.11,3.83l-10.72 0 0 -29.21zm10.39 24.9c6.72,0 10.07,-3.44 10.07,-10.34 0,-6.84 -3.35,-10.26 -10.07,-10.26l-5.11 0 0 20.6 5.11 0z"/>
    <path id="8" class="fil3" d="M296.91 59.85c-4.01,0 -7.05,-1.03 -9.11,-3.1 -2.06,-2.06 -3.09,-5.09 -3.09,-9.09l0 -17.39 5.2 0 0 17.68c0,2.52 0.59,4.43 1.76,5.73 1.17,1.3 2.92,1.95 5.24,1.95 2.26,0 3.99,-0.66 5.18,-1.97 1.18,-1.32 1.78,-3.22 1.78,-5.71l0 -17.68 5.2 0 0 17.39c0,3.97 -1.04,6.99 -3.12,9.07 -2.07,2.08 -5.09,3.12 -9.04,3.12z"/>
    <path id="9" class="fil3" d="M328.38 59.85c-2.86,0 -5.36,-0.61 -7.51,-1.84 -2.14,-1.24 -3.78,-2.98 -4.93,-5.24 -1.14,-2.25 -1.72,-4.9 -1.72,-7.94 0,-3.01 0.58,-5.64 1.72,-7.9 1.15,-2.25 2.79,-3.99 4.93,-5.21 2.15,-1.21 4.65,-1.82 7.51,-1.82 1.97,0 3.82,0.3 5.55,0.92 1.73,0.62 3.17,1.47 4.32,2.56l-1.72 3.86c-1.31,-1.07 -2.61,-1.84 -3.91,-2.32 -1.29,-0.48 -2.68,-0.72 -4.15,-0.72 -2.81,0 -4.99,0.92 -6.53,2.75 -1.54,1.84 -2.31,4.46 -2.31,7.88 0,3.45 0.76,6.1 2.29,7.94 1.53,1.85 3.71,2.77 6.55,2.77 1.47,0 2.86,-0.24 4.15,-0.71 1.3,-0.48 2.6,-1.26 3.91,-2.32l1.72 3.85c-1.15,1.1 -2.59,1.95 -4.32,2.57 -1.73,0.61 -3.58,0.92 -5.55,0.92z"/>
    <path id="10" class="fil3" d="M364.94 59.48l-2.91 -6.85 -14.24 0 -2.95 6.85 -5.32 0 13.18 -29.21 4.29 0 13.23 29.21 -5.28 0zm-15.39 -10.95l10.72 0 -5.36 -12.52 -5.36 12.52z"/>
    <polygon id="11" class="fil3" points="376.6,59.48 376.6,34.62 367.11,34.62 367.11,30.27 391.46,30.27 391.46,34.62 381.92,34.62 381.92,59.48 "/>
    <polygon id="12" class="fil3" points="395.1,59.48 395.1,30.27 400.38,30.27 400.38,59.48 "/>
    <path id="13" class="fil3" d="M419.62 59.85c-2.81,0 -5.26,-0.61 -7.35,-1.82 -2.08,-1.22 -3.7,-2.96 -4.83,-5.22 -1.13,-2.25 -1.7,-4.91 -1.7,-7.98 0,-3.03 0.56,-5.68 1.68,-7.94 1.12,-2.25 2.72,-3.98 4.81,-5.19 2.09,-1.2 4.55,-1.8 7.39,-1.8 2.84,0 5.3,0.6 7.39,1.8 2.09,1.21 3.68,2.94 4.79,5.19 1.1,2.26 1.65,4.91 1.65,7.94 0,3.07 -0.56,5.73 -1.67,7.98 -1.12,2.26 -2.72,4 -4.79,5.22 -2.08,1.21 -4.53,1.82 -7.37,1.82zm0 -4.22c2.7,0 4.8,-0.93 6.3,-2.79 1.5,-1.86 2.25,-4.53 2.25,-8.01 0,-3.44 -0.75,-6.09 -2.25,-7.94 -1.5,-1.84 -3.6,-2.77 -6.3,-2.77 -2.7,0 -4.8,0.92 -6.3,2.75 -1.5,1.83 -2.25,4.49 -2.25,7.96 0,3.48 0.75,6.15 2.25,8.01 1.5,1.86 3.6,2.79 6.3,2.79z"/>
    <polygon id="14" class="fil3" points="458.46,30.27 463.42,30.27 463.42,59.48 459.49,59.48 443.77,39.01 443.77,59.48 438.86,59.48 438.86,30.27 442.79,30.27 458.46,50.7 "/>
    <path id="15" class="fil3" d="M505.29 43.68l0 14.04c-1.34,0.65 -2.95,1.17 -4.83,1.56 -1.88,0.38 -3.81,0.57 -5.77,0.57 -3,0 -5.61,-0.6 -7.82,-1.8 -2.21,-1.21 -3.9,-2.93 -5.08,-5.17 -1.17,-2.25 -1.76,-4.93 -1.76,-8.05 0,-3.06 0.59,-5.71 1.76,-7.96 1.18,-2.24 2.85,-3.96 5.02,-5.17 2.17,-1.2 4.71,-1.8 7.63,-1.8 2.05,0 3.96,0.3 5.75,0.9 1.79,0.6 3.28,1.45 4.48,2.54l-1.8 3.86c-1.36,-1.07 -2.7,-1.83 -4.01,-2.3 -1.31,-0.46 -2.74,-0.7 -4.3,-0.7 -3,0 -5.27,0.91 -6.81,2.71 -1.54,1.81 -2.31,4.45 -2.31,7.92 0,3.59 0.79,6.29 2.37,8.11 1.58,1.82 3.94,2.73 7.08,2.73 1.91,0 3.79,-0.26 5.65,-0.78l0 -7.39 -6.3 0 0 -3.82 11.05 0z"/>
    <path id="16" class="fil3" d="M535.21 59.48l-5.57 0 -3.72 -9.72c-0.33,-0.9 -0.83,-1.53 -1.52,-1.89 -0.68,-0.36 -1.57,-0.53 -2.66,-0.53l-5.28 0 0 12.14 -5.24 0 0 -29.21 12.49 0c3.3,0 5.81,0.72 7.53,2.17 1.72,1.45 2.58,3.53 2.58,6.24 0,1.94 -0.52,3.59 -1.54,4.94 -1.02,1.36 -2.47,2.32 -4.36,2.9 1.72,0.35 2.96,1.55 3.73,3.61l3.56 9.35zm-12.24 -16.25c1.99,0 3.47,-0.37 4.42,-1.1 0.96,-0.74 1.43,-1.86 1.43,-3.37 0,-1.48 -0.47,-2.58 -1.41,-3.3 -0.94,-0.73 -2.42,-1.09 -4.44,-1.09l-6.59 0 0 8.86 6.59 0z"/>
    <path id="17" class="fil3" d="M552.69 59.85c-2.82,0 -5.26,-0.61 -7.35,-1.82 -2.09,-1.22 -3.7,-2.96 -4.83,-5.22 -1.13,-2.25 -1.7,-4.91 -1.7,-7.98 0,-3.03 0.56,-5.68 1.68,-7.94 1.12,-2.25 2.72,-3.98 4.81,-5.19 2.09,-1.2 4.55,-1.8 7.39,-1.8 2.83,0 5.3,0.6 7.38,1.8 2.09,1.21 3.69,2.94 4.79,5.19 1.11,2.26 1.66,4.91 1.66,7.94 0,3.07 -0.56,5.73 -1.68,7.98 -1.12,2.26 -2.71,4 -4.79,5.22 -2.07,1.21 -4.53,1.82 -7.36,1.82zm0 -4.22c2.7,0 4.8,-0.93 6.3,-2.79 1.5,-1.86 2.25,-4.53 2.25,-8.01 0,-3.44 -0.75,-6.09 -2.25,-7.94 -1.5,-1.84 -3.6,-2.77 -6.3,-2.77 -2.71,0 -4.81,0.92 -6.31,2.75 -1.5,1.83 -2.25,4.49 -2.25,7.96 0,3.48 0.75,6.15 2.25,8.01 1.5,1.86 3.6,2.79 6.31,2.79z"/>
    <path id="18" class="fil3" d="M583.96 59.85c-4.01,0 -7.05,-1.03 -9.11,-3.1 -2.06,-2.06 -3.09,-5.09 -3.09,-9.09l0 -17.39 5.2 0 0 17.68c0,2.52 0.59,4.43 1.76,5.73 1.17,1.3 2.92,1.95 5.24,1.95 2.26,0 3.99,-0.66 5.18,-1.97 1.18,-1.32 1.78,-3.22 1.78,-5.71l0 -17.68 5.19 0 0 17.39c0,3.97 -1.03,6.99 -3.11,9.07 -2.07,2.08 -5.09,3.12 -9.04,3.12z"/>
    <path id="19" class="fil3" d="M602.21 30.27l12.65 0c3.14,0 5.58,0.76 7.33,2.27 1.74,1.52 2.62,3.59 2.62,6.22 0,2.63 -0.88,4.71 -2.64,6.24 -1.76,1.53 -4.2,2.29 -7.31,2.29l-7.37 0 0 12.19 -5.28 0 0 -29.21zm12.04 12.92c1.83,0 3.21,-0.37 4.15,-1.13 0.94,-0.75 1.41,-1.84 1.41,-3.26 0,-1.45 -0.46,-2.55 -1.39,-3.3 -0.93,-0.75 -2.32,-1.13 -4.17,-1.13l-6.76 0 0 8.82 6.76 0z"/>
    <polygon class="fil3" points="637.1,12.34 637.1,14.25 631.68,14.25 631.68,28.44 629.48,28.44 629.48,14.25 624.06,14.25 624.06,12.34 "/>
    <path id="1" class="fil3" d="M639.07 12.34l3.12 0 4.62 13.61 4.6 -13.61 3.1 0 0 16.1 -2.08 0 0 -9.5c0,-0.33 0.01,-0.88 0.03,-1.64 0.02,-0.76 0.04,-1.57 0.04,-2.44l-4.62 13.58 -2.16 0 -4.63 -13.58 0 0.5c0,0.39 0.01,0.99 0.03,1.8 0.02,0.8 0.04,1.4 0.04,1.78l0 9.5 -2.09 0 0 -16.1z"/>
   </g>
  </g>
 </g>
</svg>
