<?xml version="1.0" encoding="UTF-8"?>
<!DOCTYPE svg PUBLIC "-//W3C//DTD SVG 1.1//EN" "http://www.w3.org/Graphics/SVG/1.1/DTD/svg11.dtd">
<!-- Creator: CorelDRAW 2017 -->
<svg xmlns="http://www.w3.org/2000/svg" xml:space="preserve" width="174px" height="36px" version="1.1" style="shape-rendering:geometricPrecision; text-rendering:geometricPrecision; image-rendering:optimizeQuality; fill-rule:evenodd; clip-rule:evenodd"
viewBox="0 0 174 36"
 xmlns:xlink="http://www.w3.org/1999/xlink">
 <defs>
  <style type="text/css">
   <![CDATA[
    .fil6 {fill:#0E5DAA;fill-rule:nonzero}
    .fil4 {fill:#31BBD7;fill-rule:nonzero}
    .fil3 {fill:#377CBF;fill-rule:nonzero}
    .fil2 {fill:#52B852;fill-rule:nonzero}
    .fil5 {fill:#6535A2;fill-rule:nonzero}
    .fil11 {fill:#778CA1;fill-rule:nonzero}
    .fil9 {fill:#91B803;fill-rule:nonzero}
    .fil8 {fill:#D7C604;fill-rule:nonzero}
    .fil0 {fill:#F24533;fill-rule:nonzero}
    .fil7 {fill:#F37046;fill-rule:nonzero}
    .fil10 {fill:#FF7B0C;fill-rule:nonzero}
    .fil1 {fill:#FFC930;fill-rule:nonzero}
   ]]>
  </style>
 </defs>
 <g id="Layer_x0020_1">
  <metadata id="CorelCorpID_0Corel-Layer"/>
  <g id="_2300890221424">
   <path class="fil0" d="M17.96 22.15c0,0.51 -0.25,1 -0.73,1.46 -0.49,0.46 -1.13,0.88 -1.9,1.26 -0.77,0.37 -1.63,0.7 -2.59,0.98 -0.95,0.28 -1.89,0.52 -2.82,0.73 -0.92,0.19 -1.8,0.34 -2.62,0.45 -0.82,0.1 -1.47,0.15 -1.95,0.15 -0.45,0 -0.93,-0.03 -1.44,-0.1 -0.51,-0.08 -0.94,-0.24 -1.27,-0.49 -0.19,-0.13 -0.36,-0.4 -0.5,-0.84 -0.14,-0.44 -0.28,-0.96 -0.41,-1.57 -0.13,-0.6 -0.25,-1.26 -0.34,-1.95 -0.1,-0.7 -0.17,-1.38 -0.23,-2.05 -0.06,-0.67 -0.11,-1.28 -0.15,-1.85 -0.03,-0.56 -0.05,-1 -0.05,-1.31 0,-0.52 0.02,-1.15 0.05,-1.89 0.04,-0.74 0.09,-1.53 0.16,-2.38 0.08,-0.84 0.17,-1.7 0.29,-2.58 0.12,-0.87 0.26,-1.7 0.41,-2.48 0.16,-0.78 0.34,-1.49 0.58,-2.11 0.22,-0.63 0.47,-1.12 0.73,-1.47 0.45,-0.56 1.02,-0.85 1.71,-0.85 0.48,0 0.88,0.14 1.22,0.42 0.33,0.29 0.6,0.65 0.8,1.1 0.2,0.45 0.36,0.95 0.46,1.5 0.11,0.55 0.19,1.1 0.24,1.64 0.05,0.54 0.07,1.04 0.07,1.5 0,0.46 0,0.82 0,1.1 0,1.62 -0.04,3.23 -0.12,4.82 -0.09,1.6 -0.13,3.2 -0.13,4.83l0 1.22c1.07,-0.29 2.24,-0.57 3.5,-0.83 1.26,-0.26 2.46,-0.39 3.6,-0.39 0.41,0 0.81,0.02 1.23,0.06 0.42,0.05 0.79,0.13 1.11,0.27 0.32,0.14 0.58,0.33 0.78,0.59 0.2,0.27 0.31,0.61 0.31,1.06z"/>
   <path id="1" class="fil1" d="M24.72 4.64c0,0.3 -0.09,0.56 -0.26,0.79 -0.18,0.23 -0.41,0.44 -0.7,0.61 -0.28,0.18 -0.59,0.32 -0.93,0.41 -0.33,0.09 -0.64,0.14 -0.93,0.14 -0.47,0 -0.89,-0.1 -1.24,-0.31 -0.36,-0.21 -0.54,-0.54 -0.54,-0.97 0,-0.32 0.09,-0.6 0.27,-0.84 0.17,-0.24 0.39,-0.43 0.66,-0.59 0.26,-0.16 0.56,-0.28 0.89,-0.36 0.34,-0.09 0.65,-0.13 0.96,-0.13 0.45,0 0.87,0.1 1.25,0.28 0.39,0.19 0.57,0.52 0.57,0.97zm0.3 10.66c0,0.29 0,0.6 0,0.92 0,0.32 -0.02,0.63 -0.04,0.92 -0.02,0.35 -0.04,0.83 -0.04,1.42 0,0.59 -0.02,1.23 -0.06,1.92 -0.05,0.69 -0.13,1.39 -0.23,2.09 -0.11,0.71 -0.28,1.36 -0.52,1.94 -0.24,0.59 -0.56,1.06 -0.95,1.42 -0.39,0.37 -0.89,0.56 -1.48,0.58 -0.45,0.02 -0.83,-0.13 -1.14,-0.47 -0.31,-0.33 -0.57,-0.76 -0.77,-1.3 -0.2,-0.52 -0.35,-1.12 -0.45,-1.77 -0.09,-0.66 -0.16,-1.29 -0.21,-1.91 -0.05,-0.62 -0.07,-1.18 -0.07,-1.7 0,-0.52 0,-0.91 0,-1.16 0,-0.33 0,-0.8 0,-1.42 0,-0.61 0.02,-1.27 0.07,-1.98 0.05,-0.71 0.14,-1.43 0.27,-2.16 0.13,-0.73 0.32,-1.39 0.57,-2 0.25,-0.61 0.58,-1.09 0.98,-1.47 0.41,-0.37 0.92,-0.56 1.53,-0.56 0.65,0 1.14,0.28 1.46,0.84 0.34,0.56 0.59,1.22 0.75,1.97 0.17,0.75 0.27,1.5 0.29,2.23 0.02,0.75 0.04,1.29 0.04,1.65z"/>
   <path id="2" class="fil2" d="M35.88 27.6c-1.69,0 -3.01,-0.19 -3.95,-0.58 -0.95,-0.39 -1.65,-0.93 -2.12,-1.64 -0.46,-0.7 -0.74,-1.56 -0.84,-2.56 -0.09,-1 -0.14,-2.11 -0.14,-3.34 0,-0.98 0.04,-1.97 0.11,-2.96 0.07,-0.99 0.18,-2.04 0.32,-3.17 -0.33,0 -0.59,0 -0.79,0.02 -0.19,0.01 -0.35,0.01 -0.46,0.01 -0.77,0 -1.43,-0.15 -1.99,-0.44 -0.56,-0.29 -0.84,-0.74 -0.84,-1.35 0,-0.37 0.15,-0.71 0.48,-0.99 0.32,-0.3 0.73,-0.55 1.23,-0.76 0.5,-0.2 1.04,-0.38 1.63,-0.5 0.59,-0.13 1.14,-0.21 1.66,-0.25 0,-0.58 0.05,-1.23 0.15,-1.93 0.09,-0.71 0.27,-1.37 0.52,-1.99 0.25,-0.61 0.59,-1.12 1.02,-1.54 0.43,-0.42 0.97,-0.62 1.64,-0.62 0.38,0 0.72,0.1 1.02,0.29 0.3,0.2 0.54,0.45 0.73,0.75 0.2,0.3 0.34,0.64 0.44,1.02 0.09,0.37 0.14,0.73 0.14,1.08 0,0.42 -0.04,0.85 -0.11,1.29 -0.07,0.43 -0.21,0.97 -0.39,1.62 0.4,-0.04 0.68,-0.07 0.82,-0.08 0.15,-0.01 0.27,-0.02 0.39,-0.02 0.41,0 0.83,0.03 1.27,0.1 0.44,0.06 0.85,0.16 1.22,0.31 0.37,0.15 0.67,0.34 0.91,0.58 0.24,0.24 0.36,0.53 0.36,0.86 0,0.38 -0.17,0.71 -0.52,1 -0.35,0.3 -0.79,0.55 -1.31,0.75 -0.52,0.21 -1.08,0.37 -1.68,0.49 -0.6,0.12 -1.16,0.19 -1.68,0.24 -0.14,0.85 -0.25,1.63 -0.31,2.36 -0.06,0.71 -0.12,1.44 -0.19,2.16 -0.05,0.35 -0.09,0.72 -0.13,1.08 -0.03,0.36 -0.05,0.73 -0.05,1.11 0,0.27 0.01,0.59 0.04,0.95 0.02,0.36 0.1,0.72 0.25,1.05 0.14,0.33 0.36,0.61 0.67,0.86 0.31,0.24 0.75,0.35 1.29,0.35 0.34,0 0.69,-0.02 1.04,-0.08 0.36,-0.05 0.72,-0.07 1.08,-0.07 0.62,0 1.07,0.19 1.34,0.56 0.27,0.38 0.41,0.86 0.41,1.44 0,0.44 -0.14,0.82 -0.44,1.15 -0.3,0.32 -0.68,0.58 -1.13,0.78 -0.45,0.2 -0.96,0.35 -1.52,0.46 -0.56,0.1 -1.09,0.15 -1.59,0.15z"/>
   <path id="3" class="fil3" d="M49.59 27.6c-1.7,0 -3.01,-0.19 -3.96,-0.58 -0.94,-0.39 -1.64,-0.93 -2.11,-1.64 -0.47,-0.7 -0.75,-1.56 -0.84,-2.56 -0.09,-1 -0.14,-2.11 -0.14,-3.34 0,-0.98 0.03,-1.97 0.11,-2.96 0.06,-0.99 0.17,-2.04 0.31,-3.17 -0.33,0 -0.59,0 -0.78,0.02 -0.19,0.01 -0.35,0.01 -0.47,0.01 -0.76,0 -1.43,-0.15 -1.99,-0.44 -0.56,-0.29 -0.84,-0.74 -0.84,-1.35 0,-0.37 0.16,-0.71 0.48,-0.99 0.33,-0.3 0.74,-0.55 1.24,-0.76 0.5,-0.2 1.04,-0.38 1.63,-0.5 0.58,-0.13 1.14,-0.21 1.66,-0.25 0,-0.58 0.05,-1.23 0.15,-1.93 0.09,-0.71 0.26,-1.37 0.51,-1.99 0.25,-0.61 0.59,-1.12 1.02,-1.54 0.43,-0.42 0.98,-0.62 1.65,-0.62 0.38,0 0.72,0.1 1.02,0.29 0.3,0.2 0.54,0.45 0.73,0.75 0.2,0.3 0.34,0.64 0.43,1.02 0.09,0.37 0.14,0.73 0.14,1.08 0,0.42 -0.03,0.85 -0.11,1.29 -0.06,0.43 -0.2,0.97 -0.39,1.62 0.41,-0.04 0.69,-0.07 0.82,-0.08 0.15,-0.01 0.28,-0.02 0.4,-0.02 0.4,0 0.83,0.03 1.27,0.1 0.44,0.06 0.85,0.16 1.22,0.31 0.36,0.15 0.67,0.34 0.9,0.58 0.24,0.24 0.36,0.53 0.36,0.86 0,0.38 -0.17,0.71 -0.51,1 -0.35,0.3 -0.79,0.55 -1.31,0.75 -0.53,0.21 -1.09,0.37 -1.68,0.49 -0.6,0.12 -1.16,0.19 -1.69,0.24 -0.14,0.85 -0.24,1.63 -0.3,2.36 -0.06,0.71 -0.12,1.44 -0.2,2.16 -0.04,0.35 -0.09,0.72 -0.12,1.08 -0.03,0.36 -0.05,0.73 -0.05,1.11 0,0.27 0.01,0.59 0.03,0.95 0.02,0.36 0.11,0.72 0.25,1.05 0.14,0.33 0.37,0.61 0.68,0.86 0.31,0.24 0.74,0.35 1.29,0.35 0.34,0 0.68,-0.02 1.04,-0.08 0.36,-0.05 0.72,-0.07 1.07,-0.07 0.63,0 1.07,0.19 1.35,0.56 0.27,0.38 0.41,0.86 0.41,1.44 0,0.44 -0.15,0.82 -0.44,1.15 -0.3,0.32 -0.68,0.58 -1.13,0.78 -0.46,0.2 -0.96,0.35 -1.52,0.46 -0.57,0.1 -1.1,0.15 -1.59,0.15z"/>
   <path id="4" class="fil4" d="M61.65 7.52c0,1.12 -0.05,2.25 -0.16,3.39 -0.1,1.14 -0.16,2.28 -0.16,3.42 0,1.49 0.06,2.96 0.16,4.44 0.11,1.49 0.16,2.98 0.16,4.48 0,0.37 -0.02,0.79 -0.07,1.26 -0.05,0.47 -0.16,0.9 -0.34,1.3 -0.18,0.4 -0.45,0.73 -0.8,1 -0.36,0.27 -0.83,0.41 -1.43,0.41 -0.57,0 -1.07,-0.25 -1.49,-0.74 -0.41,-0.49 -0.76,-1.12 -1.03,-1.87 -0.28,-0.77 -0.5,-1.62 -0.68,-2.55 -0.18,-0.94 -0.31,-1.85 -0.4,-2.74 -0.08,-0.88 -0.13,-1.7 -0.17,-2.44 -0.04,-0.74 -0.06,-1.28 -0.06,-1.64 0,-0.4 0.02,-0.97 0.06,-1.72 0.04,-0.75 0.11,-1.56 0.23,-2.44 0.12,-0.87 0.28,-1.77 0.48,-2.67 0.2,-0.91 0.47,-1.73 0.81,-2.47 0.33,-0.74 0.73,-1.34 1.2,-1.81 0.46,-0.47 1.01,-0.71 1.66,-0.71 0.52,0 0.92,0.15 1.19,0.46 0.28,0.3 0.47,0.66 0.59,1.09 0.12,0.43 0.19,0.88 0.22,1.35 0.02,0.47 0.03,0.86 0.03,1.2z"/>
   <path id="5" class="fil5" d="M79.3 20.92c0,0.71 -0.25,1.4 -0.77,2.08 -0.51,0.68 -1.15,1.28 -1.92,1.81 -0.77,0.53 -1.6,0.96 -2.47,1.28 -0.88,0.33 -1.69,0.49 -2.43,0.49 -1.25,0 -2.37,-0.28 -3.36,-0.83 -0.99,-0.56 -1.82,-1.26 -2.48,-2.12 -0.67,-0.85 -1.17,-1.79 -1.51,-2.82 -0.35,-1.04 -0.52,-2.04 -0.52,-3.02 0,-1.05 0.16,-2.16 0.5,-3.35 0.33,-1.19 0.83,-2.29 1.52,-3.29 0.67,-1 1.53,-1.83 2.56,-2.5 1.03,-0.66 2.26,-1 3.69,-1 0.81,0 1.58,0.12 2.32,0.36 0.74,0.24 1.38,0.58 1.92,1.02 0.55,0.43 0.99,0.96 1.32,1.56 0.33,0.6 0.5,1.28 0.5,2.03 0,0.98 -0.24,1.9 -0.71,2.75 -0.48,0.86 -1.11,1.6 -1.89,2.23 -0.79,0.62 -1.69,1.13 -2.71,1.51 -1.02,0.39 -2.07,0.6 -3.14,0.64 0.1,0.61 0.38,1.05 0.84,1.32 0.46,0.28 1.02,0.41 1.66,0.41 0.47,0 0.93,-0.1 1.38,-0.31 0.46,-0.21 0.89,-0.44 1.32,-0.7 0.43,-0.26 0.85,-0.5 1.27,-0.71 0.41,-0.2 0.83,-0.31 1.26,-0.31 0.47,0 0.9,0.13 1.28,0.41 0.38,0.27 0.57,0.62 0.57,1.06zm-5.77 -7.67c0,-0.27 -0.09,-0.55 -0.25,-0.84 -0.17,-0.29 -0.43,-0.44 -0.78,-0.44 -0.53,0 -0.97,0.12 -1.32,0.36 -0.36,0.24 -0.66,0.54 -0.89,0.91 -0.24,0.36 -0.42,0.75 -0.55,1.17 -0.13,0.41 -0.21,0.8 -0.23,1.15 0.33,-0.06 0.73,-0.15 1.19,-0.25 0.46,-0.1 0.9,-0.25 1.32,-0.42 0.41,-0.18 0.76,-0.4 1.06,-0.67 0.3,-0.27 0.45,-0.59 0.45,-0.97z"/>
   <path id="6" class="fil6" d="M101 4.52c0,0.48 -0.18,0.89 -0.52,1.25 -0.34,0.35 -0.75,0.65 -1.22,0.88 -0.42,0.23 -0.86,0.47 -1.31,0.73 -0.45,0.26 -0.86,0.55 -1.24,0.88 -0.38,0.32 -0.68,0.68 -0.92,1.08 -0.24,0.39 -0.35,0.84 -0.35,1.34 0,0.44 0.11,0.83 0.35,1.19 0.24,0.35 0.53,0.7 0.87,1.05 0.34,0.34 0.72,0.7 1.14,1.06 0.41,0.36 0.79,0.77 1.13,1.22 0.34,0.45 0.63,0.95 0.87,1.52 0.24,0.56 0.36,1.21 0.36,1.97 0,0.52 -0.13,1.11 -0.38,1.76 -0.25,0.66 -0.59,1.32 -1.01,1.99 -0.44,0.67 -0.94,1.32 -1.52,1.94 -0.59,0.63 -1.2,1.18 -1.85,1.67 -0.66,0.49 -1.34,0.89 -2.06,1.19 -0.71,0.31 -1.4,0.46 -2.07,0.46 -0.73,0 -1.39,-0.18 -1.96,-0.54 -0.57,-0.35 -0.85,-0.88 -0.85,-1.59 0,-0.48 0.13,-0.92 0.39,-1.33 0.26,-0.41 0.58,-0.8 0.96,-1.17 0.38,-0.38 0.8,-0.74 1.26,-1.1 0.47,-0.35 0.88,-0.71 1.26,-1.06 0.38,-0.35 0.7,-0.73 0.97,-1.11 0.26,-0.39 0.39,-0.8 0.39,-1.24 0,-0.6 -0.25,-1.22 -0.73,-1.86 -0.49,-0.63 -1.02,-1.29 -1.61,-1.97 -0.6,-0.68 -1.13,-1.37 -1.62,-2.08 -0.48,-0.71 -0.72,-1.43 -0.72,-2.16 0,-0.89 0.27,-1.84 0.81,-2.83 0.55,-0.99 1.25,-1.89 2.1,-2.72 0.86,-0.82 1.82,-1.51 2.89,-2.05 1.06,-0.54 2.12,-0.81 3.16,-0.81 0.83,0 1.54,0.22 2.14,0.65 0.59,0.44 0.89,1.03 0.89,1.79z"/>
   <path id="7" class="fil7" d="M110.58 27.6c-1.69,0 -3.01,-0.19 -3.95,-0.58 -0.94,-0.39 -1.65,-0.93 -2.11,-1.64 -0.47,-0.7 -0.75,-1.56 -0.84,-2.56 -0.1,-1 -0.15,-2.11 -0.15,-3.34 0,-0.98 0.04,-1.97 0.12,-2.96 0.06,-0.99 0.17,-2.04 0.31,-3.17 -0.33,0 -0.59,0 -0.78,0.02 -0.19,0.01 -0.35,0.01 -0.47,0.01 -0.77,0 -1.43,-0.15 -1.99,-0.44 -0.56,-0.29 -0.84,-0.74 -0.84,-1.35 0,-0.37 0.16,-0.71 0.48,-0.99 0.32,-0.3 0.74,-0.55 1.24,-0.76 0.5,-0.2 1.04,-0.38 1.63,-0.5 0.58,-0.13 1.13,-0.21 1.66,-0.25 0,-0.58 0.05,-1.23 0.14,-1.93 0.1,-0.71 0.27,-1.37 0.52,-1.99 0.25,-0.61 0.59,-1.12 1.02,-1.54 0.43,-0.42 0.98,-0.62 1.64,-0.62 0.39,0 0.73,0.1 1.03,0.29 0.29,0.2 0.54,0.45 0.73,0.75 0.19,0.3 0.33,0.64 0.43,1.02 0.09,0.37 0.14,0.73 0.14,1.08 0,0.42 -0.04,0.85 -0.11,1.29 -0.07,0.43 -0.2,0.97 -0.39,1.62 0.41,-0.04 0.68,-0.07 0.82,-0.08 0.15,-0.01 0.28,-0.02 0.4,-0.02 0.4,0 0.83,0.03 1.27,0.1 0.43,0.06 0.84,0.16 1.22,0.31 0.36,0.15 0.66,0.34 0.9,0.58 0.24,0.24 0.36,0.53 0.36,0.86 0,0.38 -0.17,0.71 -0.51,1 -0.35,0.3 -0.79,0.55 -1.32,0.75 -0.52,0.21 -1.08,0.37 -1.68,0.49 -0.59,0.12 -1.16,0.19 -1.68,0.24 -0.14,0.85 -0.24,1.63 -0.3,2.36 -0.06,0.71 -0.12,1.44 -0.2,2.16 -0.05,0.35 -0.09,0.72 -0.13,1.08 -0.03,0.36 -0.04,0.73 -0.04,1.11 0,0.27 0.01,0.59 0.03,0.95 0.02,0.36 0.11,0.72 0.25,1.05 0.14,0.33 0.37,0.61 0.68,0.86 0.31,0.24 0.74,0.35 1.29,0.35 0.33,0 0.68,-0.02 1.04,-0.08 0.35,-0.05 0.71,-0.07 1.07,-0.07 0.63,0 1.07,0.19 1.34,0.56 0.28,0.38 0.42,0.86 0.42,1.44 0,0.44 -0.15,0.82 -0.45,1.15 -0.3,0.32 -0.67,0.58 -1.12,0.78 -0.46,0.2 -0.97,0.35 -1.53,0.46 -0.56,0.1 -1.09,0.15 -1.59,0.15z"/>
   <path id="8" class="fil8" d="M130.91 20.92c0,0.71 -0.25,1.4 -0.77,2.08 -0.51,0.68 -1.15,1.28 -1.92,1.81 -0.77,0.53 -1.6,0.96 -2.47,1.28 -0.88,0.33 -1.69,0.49 -2.43,0.49 -1.25,0 -2.37,-0.28 -3.36,-0.83 -0.99,-0.56 -1.82,-1.26 -2.48,-2.12 -0.67,-0.85 -1.17,-1.79 -1.51,-2.82 -0.35,-1.04 -0.52,-2.04 -0.52,-3.02 0,-1.05 0.16,-2.16 0.5,-3.35 0.33,-1.19 0.83,-2.29 1.52,-3.29 0.67,-1 1.53,-1.83 2.56,-2.5 1.03,-0.66 2.26,-1 3.69,-1 0.81,0 1.58,0.12 2.32,0.36 0.73,0.24 1.38,0.58 1.92,1.02 0.55,0.43 0.99,0.96 1.32,1.56 0.33,0.6 0.5,1.28 0.5,2.03 0,0.98 -0.24,1.9 -0.71,2.75 -0.48,0.86 -1.11,1.6 -1.89,2.23 -0.79,0.62 -1.69,1.13 -2.71,1.51 -1.02,0.39 -2.07,0.6 -3.13,0.64 0.09,0.61 0.37,1.05 0.83,1.32 0.46,0.28 1.02,0.41 1.66,0.41 0.47,0 0.94,-0.1 1.39,-0.31 0.45,-0.21 0.88,-0.44 1.31,-0.7 0.43,-0.26 0.85,-0.5 1.27,-0.71 0.41,-0.2 0.83,-0.31 1.26,-0.31 0.47,0 0.9,0.13 1.28,0.41 0.38,0.27 0.57,0.62 0.57,1.06zm-5.77 -7.67c0,-0.27 -0.09,-0.55 -0.25,-0.84 -0.17,-0.29 -0.43,-0.44 -0.78,-0.44 -0.53,0 -0.97,0.12 -1.32,0.36 -0.36,0.24 -0.66,0.54 -0.89,0.91 -0.24,0.36 -0.42,0.75 -0.55,1.17 -0.13,0.41 -0.21,0.8 -0.23,1.15 0.33,-0.06 0.73,-0.15 1.19,-0.25 0.46,-0.1 0.9,-0.25 1.32,-0.42 0.41,-0.18 0.76,-0.4 1.06,-0.67 0.3,-0.27 0.45,-0.59 0.45,-0.97z"/>
   <path id="9" class="fil9" d="M148.72 17.16c0,0.91 -0.12,1.92 -0.34,3.02 -0.23,1.09 -0.61,2.11 -1.15,3.05 -0.53,0.93 -1.24,1.72 -2.11,2.34 -0.87,0.63 -1.96,0.94 -3.27,0.94 -0.34,0 -0.69,-0.02 -1.05,-0.06 -0.35,-0.04 -0.69,-0.11 -1.01,-0.22 -0.33,-0.1 -0.62,-0.25 -0.88,-0.42 -0.26,-0.18 -0.46,-0.41 -0.61,-0.71l-0.32 4.5c-0.03,0.48 -0.04,1.05 -0.05,1.72 -0.01,0.67 -0.11,1.3 -0.29,1.91 -0.18,0.6 -0.47,1.12 -0.89,1.54 -0.42,0.43 -1.01,0.64 -1.8,0.64 -0.45,0 -0.84,-0.2 -1.14,-0.6 -0.31,-0.41 -0.55,-0.93 -0.74,-1.55 -0.17,-0.63 -0.31,-1.33 -0.4,-2.1 -0.1,-0.77 -0.16,-1.51 -0.18,-2.22 -0.03,-0.71 -0.04,-1.36 -0.04,-1.94 0,-0.58 0,-1.01 0,-1.28 0,-1.4 -0.01,-2.79 -0.03,-4.17 -0.03,-1.39 -0.04,-2.78 -0.04,-4.18 0,-0.25 0,-0.64 0,-1.17 0,-0.53 0.02,-1.11 0.07,-1.73 0.05,-0.63 0.13,-1.28 0.23,-1.95 0.11,-0.67 0.27,-1.27 0.49,-1.82 0.21,-0.56 0.49,-1.01 0.82,-1.35 0.33,-0.35 0.74,-0.52 1.22,-0.52 0.31,0 0.59,0.09 0.84,0.24 0.25,0.16 0.46,0.36 0.64,0.6 0.18,0.24 0.32,0.49 0.45,0.76 0.11,0.27 0.21,0.52 0.28,0.75 0.74,-0.73 1.59,-1.28 2.56,-1.66 0.97,-0.37 2,-0.56 3.09,-0.56 1.15,0 2.08,0.29 2.81,0.85 0.72,0.56 1.3,1.26 1.71,2.09 0.42,0.84 0.71,1.73 0.88,2.68 0.16,0.95 0.25,1.81 0.25,2.58zm-5.12 -0.26c0,-0.31 -0.03,-0.63 -0.09,-0.95 -0.06,-0.32 -0.17,-0.62 -0.32,-0.91 -0.16,-0.28 -0.38,-0.51 -0.67,-0.69 -0.28,-0.17 -0.64,-0.26 -1.07,-0.26 -0.57,0 -1.18,0.16 -1.81,0.48 -0.63,0.33 -1.11,0.7 -1.42,1.11 -0.11,0.17 -0.19,0.44 -0.21,0.82 -0.03,0.37 -0.04,0.66 -0.04,0.84 0,0.15 0.01,0.34 0.02,0.58 0.01,0.24 0.03,0.49 0.05,0.74 0.03,0.25 0.06,0.49 0.09,0.72 0.04,0.23 0.09,0.41 0.16,0.53 0.08,0.19 0.23,0.36 0.47,0.52 0.24,0.16 0.5,0.3 0.79,0.42 0.28,0.13 0.58,0.22 0.88,0.28 0.3,0.07 0.55,0.1 0.77,0.1 0.5,0 0.91,-0.17 1.22,-0.5 0.31,-0.33 0.55,-0.73 0.73,-1.19 0.18,-0.46 0.3,-0.94 0.36,-1.43 0.06,-0.49 0.09,-0.89 0.09,-1.21z"/>
   <path id="10" class="fil10" d="M161.36 9.3c0,0.6 -0.23,1.05 -0.7,1.34 -0.47,0.29 -0.99,0.57 -1.57,0.83 -0.57,0.26 -1.09,0.57 -1.56,0.92 -0.47,0.36 -0.7,0.88 -0.7,1.59 0,0.38 0.1,0.7 0.3,0.97 0.21,0.27 0.46,0.52 0.76,0.74 0.29,0.22 0.62,0.44 0.98,0.67 0.36,0.23 0.69,0.49 0.99,0.78 0.3,0.29 0.55,0.65 0.76,1.06 0.2,0.42 0.3,0.93 0.3,1.53 0,0.88 -0.25,1.74 -0.77,2.58 -0.51,0.85 -1.17,1.6 -1.97,2.25 -0.79,0.66 -1.69,1.19 -2.7,1.58 -1,0.4 -1.99,0.6 -2.97,0.6 -0.4,0 -0.81,-0.03 -1.21,-0.08 -0.41,-0.05 -0.77,-0.15 -1.09,-0.3 -0.33,-0.15 -0.6,-0.35 -0.81,-0.61 -0.21,-0.26 -0.32,-0.6 -0.32,-1.02 0,-0.58 0.13,-1.03 0.39,-1.35 0.27,-0.33 0.6,-0.58 1,-0.77 0.41,-0.19 0.85,-0.33 1.31,-0.44 0.47,-0.1 0.9,-0.23 1.31,-0.39 0.4,-0.15 0.74,-0.35 1,-0.61 0.26,-0.25 0.4,-0.6 0.4,-1.06 0,-0.44 -0.2,-0.89 -0.59,-1.36 -0.4,-0.47 -0.83,-0.97 -1.31,-1.5 -0.48,-0.53 -0.92,-1.1 -1.31,-1.7 -0.4,-0.61 -0.59,-1.27 -0.59,-2 0,-0.9 0.2,-1.73 0.62,-2.49 0.42,-0.76 0.98,-1.42 1.68,-1.98 0.71,-0.57 1.52,-1.01 2.42,-1.33 0.91,-0.32 1.87,-0.48 2.87,-0.48 0.38,0 0.76,0.03 1.13,0.09 0.37,0.06 0.69,0.17 0.98,0.33 0.29,0.15 0.52,0.36 0.7,0.62 0.18,0.26 0.27,0.59 0.27,0.99z"/>
   <path class="fil11" d="M163.59 1.93l0 4.85c-0.01,0.18 -0.08,0.31 -0.22,0.4 -0.14,0.09 -0.29,0.13 -0.45,0.12 -0.17,0 -0.31,-0.05 -0.44,-0.14 -0.13,-0.09 -0.2,-0.21 -0.19,-0.38l0 -4.85 -1.35 0c-0.21,0 -0.37,-0.06 -0.47,-0.17 -0.1,-0.12 -0.15,-0.24 -0.15,-0.39 0,-0.14 0.05,-0.26 0.15,-0.38 0.11,-0.11 0.26,-0.17 0.46,-0.18l4.07 0c0.22,0 0.37,0.05 0.46,0.16 0.09,0.12 0.14,0.25 0.14,0.39 0,0.07 -0.02,0.15 -0.05,0.22 -0.02,0.07 -0.07,0.14 -0.12,0.19 -0.06,0.05 -0.13,0.1 -0.2,0.13 -0.09,0.03 -0.18,0.04 -0.28,0.02l0.05 0.01 -1.41 0z"/>
   <path id="1" class="fil11" d="M170.48 6.02l0 -0.01c-0.06,0.11 -0.15,0.2 -0.28,0.26 -0.13,0.06 -0.25,0.09 -0.38,0.09 -0.13,0 -0.26,-0.03 -0.38,-0.08 -0.11,-0.06 -0.2,-0.15 -0.26,-0.26l-1.27 -2.64 0 3.44c0,0.18 -0.07,0.32 -0.2,0.4 -0.14,0.08 -0.29,0.12 -0.45,0.11 -0.16,0 -0.31,-0.05 -0.44,-0.15 -0.14,-0.09 -0.21,-0.23 -0.21,-0.41l0 -5.62c0.01,-0.16 0.07,-0.29 0.19,-0.38 0.12,-0.09 0.26,-0.15 0.42,-0.17 0.16,-0.02 0.32,0 0.49,0.05 0.16,0.06 0.28,0.15 0.37,0.28l1.75 3.36c0.29,-0.56 0.58,-1.12 0.87,-1.68 0.29,-0.55 0.58,-1.11 0.86,-1.67 0.08,-0.12 0.2,-0.21 0.36,-0.27 0.16,-0.05 0.32,-0.07 0.48,-0.06 0.16,0.01 0.31,0.07 0.43,0.16 0.13,0.09 0.2,0.22 0.21,0.39l0 5.65c0,0.11 -0.03,0.2 -0.09,0.28 -0.07,0.07 -0.15,0.13 -0.25,0.17 -0.09,0.04 -0.2,0.06 -0.31,0.06 -0.11,0.01 -0.21,-0.01 -0.31,-0.04 -0.1,-0.04 -0.18,-0.1 -0.24,-0.17 -0.07,-0.08 -0.1,-0.18 -0.1,-0.3l0 -3.43 -1.26 2.64z"/>
  </g>
 </g>
</svg>
