<?xml version="1.0" encoding="UTF-8"?>
<!DOCTYPE svg PUBLIC "-//W3C//DTD SVG 1.1//EN" "http://www.w3.org/Graphics/SVG/1.1/DTD/svg11.dtd">
<!-- Creator: CorelDRAW 2017 -->
<svg xmlns="http://www.w3.org/2000/svg" xml:space="preserve" width="323px" height="54px" version="1.1" style="shape-rendering:geometricPrecision; text-rendering:geometricPrecision; image-rendering:optimizeQuality; fill-rule:evenodd; clip-rule:evenodd"
viewBox="0 0 323 54"
 xmlns:xlink="http://www.w3.org/1999/xlink">
 <defs>
  <style type="text/css">
   <![CDATA[
    .str1 {stroke:#6E6E6E;stroke-linecap:square;stroke-linejoin:round;stroke-miterlimit:114.593}
    .str0 {stroke:#F49000;stroke-linecap:square;stroke-linejoin:round;stroke-miterlimit:114.593}
    .fil1 {fill:#6E6E6E}
    .fil0 {fill:#F49000}
    .fil2 {fill:#6E6E6E;fill-rule:nonzero}
    .fil3 {fill:#7F7B7A;fill-rule:nonzero}
   ]]>
  </style>
 </defs>
 <g id="Layer_x0020_1">
  <metadata id="CorelCorpID_0Corel-Layer"/>
  <g id="_2765449193296">
   <g>
    <polygon class="fil0 str0" points="28.05,52.38 65.35,1.62 18.65,38.84 "/>
    <polygon class="fil1 str1" points="1.5,14.14 38.05,38.77 28.05,52.38 "/>
   </g>
   <polygon class="fil2" points="56.96,37.92 59.51,37.92 53.35,51.79 51.31,51.79 45.15,37.92 47.75,37.92 52.36,48.63 "/>
   <polygon id="1" class="fil2" points="60.83,51.79 60.83,37.92 63.34,37.92 63.34,51.79 "/>
   <path id="2" class="fil2" d="M71.01 51.97c-1.06,0 -2.05,-0.15 -2.98,-0.43 -0.93,-0.29 -1.71,-0.7 -2.36,-1.23l0.85 -1.83c0.68,0.5 1.38,0.88 2.11,1.12 0.74,0.24 1.54,0.36 2.4,0.36 0.96,0 1.7,-0.17 2.23,-0.51 0.52,-0.34 0.79,-0.81 0.79,-1.42 0,-0.52 -0.25,-0.92 -0.73,-1.2 -0.49,-0.28 -1.29,-0.54 -2.4,-0.79 -1.74,-0.37 -3,-0.86 -3.79,-1.46 -0.79,-0.6 -1.19,-1.47 -1.19,-2.61 0,-0.82 0.22,-1.55 0.66,-2.18 0.44,-0.64 1.07,-1.14 1.88,-1.5 0.81,-0.37 1.74,-0.55 2.81,-0.55 0.97,0 1.89,0.15 2.77,0.44 0.87,0.29 1.59,0.7 2.14,1.22l-0.83 1.83c-1.23,-0.99 -2.59,-1.48 -4.08,-1.48 -0.9,0 -1.6,0.18 -2.12,0.55 -0.52,0.37 -0.78,0.88 -0.78,1.51 0,0.55 0.23,0.97 0.69,1.25 0.46,0.29 1.25,0.55 2.36,0.8 1.15,0.27 2.09,0.57 2.82,0.89 0.73,0.32 1.28,0.72 1.67,1.22 0.39,0.5 0.58,1.13 0.58,1.88 0,0.84 -0.22,1.56 -0.66,2.18 -0.44,0.61 -1.07,1.09 -1.9,1.43 -0.83,0.34 -1.81,0.51 -2.94,0.51z"/>
   <polygon id="3" class="fil2" points="78.85,51.79 78.85,37.92 81.35,37.92 81.35,51.79 "/>
   <path id="4" class="fil2" d="M90.49 51.97c-1.34,0 -2.5,-0.29 -3.49,-0.87 -0.99,-0.58 -1.76,-1.4 -2.29,-2.48 -0.54,-1.07 -0.81,-2.33 -0.81,-3.79 0,-1.44 0.26,-2.69 0.8,-3.77 0.53,-1.07 1.29,-1.89 2.28,-2.46 0.99,-0.57 2.16,-0.86 3.51,-0.86 1.35,0 2.52,0.29 3.51,0.86 0.99,0.57 1.75,1.39 2.27,2.46 0.53,1.08 0.79,2.33 0.79,3.77 0,1.46 -0.27,2.72 -0.8,3.79 -0.53,1.08 -1.29,1.9 -2.27,2.48 -0.99,0.58 -2.15,0.87 -3.5,0.87zm0 -2.01c1.28,0 2.28,-0.44 2.99,-1.33 0.71,-0.88 1.07,-2.15 1.07,-3.8 0,-1.63 -0.36,-2.89 -1.07,-3.77 -0.71,-0.87 -1.71,-1.31 -2.99,-1.31 -1.28,0 -2.28,0.43 -2.99,1.3 -0.72,0.87 -1.07,2.13 -1.07,3.78 0,1.65 0.35,2.92 1.07,3.8 0.71,0.89 1.71,1.33 2.99,1.33z"/>
   <polygon id="5" class="fil2" points="108.93,37.92 111.28,37.92 111.28,51.79 109.42,51.79 101.96,42.07 101.96,51.79 99.62,51.79 99.62,37.92 101.49,37.92 108.93,47.62 "/>
   <polygon id="6" class="fil2" points="119.62,51.79 119.62,37.92 128.87,37.92 128.87,39.9 122.07,39.9 122.07,43.74 128.46,43.74 128.46,45.73 122.07,45.73 122.07,49.8 128.87,49.8 128.87,51.79 "/>
   <path id="7" class="fil2" d="M131.19 37.92l5.09 0c2.27,0 4.02,0.6 5.27,1.81 1.26,1.21 1.88,2.91 1.88,5.1 0,2.21 -0.62,3.92 -1.88,5.14 -1.25,1.21 -3,1.82 -5.27,1.82l-5.09 0 0 -13.87zm4.93 11.82c3.19,0 4.78,-1.63 4.78,-4.91 0,-3.24 -1.59,-4.87 -4.78,-4.87l-2.43 0 0 9.78 2.43 0z"/>
   <path id="8" class="fil2" d="M151.71 51.97c-1.9,0 -3.35,-0.49 -4.32,-1.48 -0.98,-0.98 -1.47,-2.41 -1.47,-4.31l0 -8.26 2.47 0 0 8.39c0,1.2 0.27,2.11 0.83,2.72 0.56,0.62 1.39,0.93 2.49,0.93 1.07,0 1.9,-0.31 2.46,-0.94 0.56,-0.62 0.84,-1.52 0.84,-2.71l0 -8.39 2.47 0 0 8.26c0,1.88 -0.49,3.32 -1.47,4.31 -0.99,0.98 -2.42,1.48 -4.3,1.48z"/>
   <path id="9" class="fil2" d="M166.66 51.97c-1.37,0 -2.55,-0.3 -3.57,-0.88 -1.02,-0.59 -1.8,-1.41 -2.34,-2.49 -0.55,-1.07 -0.82,-2.32 -0.82,-3.77 0,-1.42 0.27,-2.68 0.82,-3.75 0.54,-1.07 1.32,-1.89 2.34,-2.47 1.02,-0.58 2.2,-0.87 3.57,-0.87 0.93,0 1.81,0.15 2.63,0.44 0.82,0.29 1.51,0.7 2.05,1.22l-0.82 1.83c-0.62,-0.51 -1.24,-0.87 -1.85,-1.1 -0.62,-0.23 -1.28,-0.34 -1.98,-0.34 -1.33,0 -2.36,0.43 -3.09,1.3 -0.74,0.87 -1.1,2.12 -1.1,3.74 0,1.64 0.36,2.9 1.08,3.77 0.73,0.88 1.77,1.32 3.11,1.32 0.7,0 1.36,-0.11 1.98,-0.34 0.61,-0.23 1.23,-0.6 1.85,-1.1l0.82 1.83c-0.54,0.52 -1.23,0.93 -2.05,1.22 -0.82,0.29 -1.7,0.44 -2.63,0.44z"/>
   <path id="10" class="fil2" d="M184.01 51.79l-1.38 -3.25 -6.76 0 -1.4 3.25 -2.53 0 6.26 -13.87 2.04 0 6.28 13.87 -2.51 0zm-7.31 -5.2l5.1 0 -2.55 -5.94 -2.55 5.94z"/>
   <polygon id="11" class="fil2" points="189.55,51.79 189.55,39.98 185.04,39.98 185.04,37.92 196.61,37.92 196.61,39.98 192.08,39.98 192.08,51.79 "/>
   <polygon id="12" class="fil2" points="198.34,51.79 198.34,37.92 200.84,37.92 200.84,51.79 "/>
   <path id="13" class="fil2" d="M209.98 51.97c-1.34,0 -2.5,-0.29 -3.49,-0.87 -0.99,-0.58 -1.76,-1.4 -2.29,-2.48 -0.54,-1.07 -0.81,-2.33 -0.81,-3.79 0,-1.44 0.26,-2.69 0.8,-3.77 0.53,-1.07 1.29,-1.89 2.28,-2.46 0.99,-0.57 2.16,-0.86 3.51,-0.86 1.35,0 2.52,0.29 3.51,0.86 0.99,0.57 1.75,1.39 2.27,2.46 0.53,1.08 0.79,2.33 0.79,3.77 0,1.46 -0.27,2.72 -0.8,3.79 -0.53,1.08 -1.29,1.9 -2.27,2.48 -0.99,0.58 -2.15,0.87 -3.5,0.87zm0 -2.01c1.28,0 2.28,-0.44 2.99,-1.33 0.71,-0.88 1.07,-2.15 1.07,-3.8 0,-1.63 -0.36,-2.89 -1.07,-3.77 -0.71,-0.87 -1.71,-1.31 -2.99,-1.31 -1.28,0 -2.28,0.43 -2.99,1.3 -0.72,0.87 -1.07,2.13 -1.07,3.78 0,1.65 0.35,2.92 1.07,3.8 0.71,0.89 1.71,1.33 2.99,1.33z"/>
   <polygon id="14" class="fil2" points="228.42,37.92 230.77,37.92 230.77,51.79 228.91,51.79 221.44,42.07 221.44,51.79 219.11,51.79 219.11,37.92 220.98,37.92 228.42,47.62 "/>
   <path id="15" class="fil2" d="M250.65 44.29l0 6.66c-0.63,0.31 -1.39,0.56 -2.29,0.74 -0.89,0.18 -1.8,0.28 -2.74,0.28 -1.42,0 -2.66,-0.29 -3.71,-0.86 -1.05,-0.57 -1.85,-1.39 -2.41,-2.46 -0.56,-1.06 -0.84,-2.34 -0.84,-3.82 0,-1.45 0.28,-2.71 0.84,-3.78 0.56,-1.06 1.35,-1.88 2.38,-2.45 1.03,-0.57 2.24,-0.86 3.63,-0.86 0.97,0 1.88,0.15 2.73,0.43 0.85,0.29 1.55,0.69 2.12,1.21l-0.85 1.83c-0.65,-0.51 -1.28,-0.87 -1.91,-1.09 -0.62,-0.22 -1.3,-0.33 -2.04,-0.33 -1.42,0 -2.5,0.43 -3.23,1.28 -0.73,0.86 -1.1,2.11 -1.1,3.76 0,1.71 0.38,2.99 1.13,3.85 0.75,0.87 1.87,1.3 3.36,1.3 0.91,0 1.8,-0.13 2.68,-0.37l0 -3.51 -2.99 0 0 -1.81 5.24 0z"/>
   <path id="16" class="fil2" d="M264.86 51.79l-2.64 0 -1.77 -4.62c-0.15,-0.43 -0.39,-0.73 -0.72,-0.89 -0.32,-0.17 -0.74,-0.26 -1.26,-0.26l-2.51 0 0 5.77 -2.49 0 0 -13.87 5.93 0c1.57,0 2.76,0.34 3.58,1.03 0.81,0.69 1.22,1.68 1.22,2.96 0,0.92 -0.24,1.71 -0.73,2.35 -0.48,0.64 -1.17,1.1 -2.07,1.37 0.82,0.17 1.41,0.74 1.77,1.72l1.69 4.44zm-5.81 -7.72c0.95,0 1.65,-0.17 2.1,-0.52 0.45,-0.35 0.68,-0.88 0.68,-1.6 0,-0.7 -0.22,-1.22 -0.67,-1.57 -0.45,-0.34 -1.15,-0.51 -2.11,-0.51l-3.13 0 0 4.2 3.13 0z"/>
   <path id="17" class="fil2" d="M273.16 51.97c-1.33,0 -2.5,-0.29 -3.49,-0.87 -0.99,-0.58 -1.75,-1.4 -2.29,-2.48 -0.54,-1.07 -0.81,-2.33 -0.81,-3.79 0,-1.44 0.27,-2.69 0.8,-3.77 0.53,-1.07 1.29,-1.89 2.28,-2.46 0.99,-0.57 2.16,-0.86 3.51,-0.86 1.35,0 2.52,0.29 3.51,0.86 0.99,0.57 1.75,1.39 2.27,2.46 0.53,1.08 0.79,2.33 0.79,3.77 0,1.46 -0.27,2.72 -0.8,3.79 -0.53,1.08 -1.29,1.9 -2.27,2.48 -0.99,0.58 -2.15,0.87 -3.5,0.87zm0 -2.01c1.28,0 2.28,-0.44 2.99,-1.33 0.72,-0.88 1.07,-2.15 1.07,-3.8 0,-1.63 -0.35,-2.89 -1.07,-3.77 -0.71,-0.87 -1.71,-1.31 -2.99,-1.31 -1.28,0 -2.28,0.43 -2.99,1.3 -0.71,0.87 -1.07,2.13 -1.07,3.78 0,1.65 0.36,2.92 1.07,3.8 0.71,0.89 1.71,1.33 2.99,1.33z"/>
   <path id="18" class="fil2" d="M288.01 51.97c-1.9,0 -3.35,-0.49 -4.32,-1.48 -0.98,-0.98 -1.47,-2.41 -1.47,-4.31l0 -8.26 2.47 0 0 8.39c0,1.2 0.27,2.11 0.83,2.72 0.56,0.62 1.39,0.93 2.49,0.93 1.08,0 1.9,-0.31 2.46,-0.94 0.56,-0.62 0.84,-1.52 0.84,-2.71l0 -8.39 2.47 0 0 8.26c0,1.88 -0.49,3.32 -1.47,4.31 -0.99,0.98 -2.42,1.48 -4.3,1.48z"/>
   <path id="19" class="fil2" d="M296.68 37.92l6 0c1.49,0 2.65,0.36 3.48,1.08 0.83,0.72 1.25,1.7 1.25,2.95 0,1.25 -0.42,2.24 -1.26,2.96 -0.83,0.73 -1.99,1.09 -3.47,1.09l-3.49 0 0 5.79 -2.51 0 0 -13.87zm5.71 6.14c0.87,0 1.53,-0.18 1.98,-0.54 0.44,-0.36 0.67,-0.87 0.67,-1.55 0,-0.69 -0.22,-1.21 -0.66,-1.57 -0.45,-0.36 -1.11,-0.53 -1.99,-0.53l-3.2 0 0 4.19 3.2 0z"/>
   <polygon class="fil3" points="313.23,29.41 313.23,30.31 310.66,30.31 310.66,37.05 309.61,37.05 309.61,30.31 307.04,30.31 307.04,29.41 "/>
   <path id="1" class="fil3" d="M314.17 29.41l1.48 0 2.19 6.46 2.19 -6.46 1.47 0 0 7.64 -0.99 0 0 -4.51c0,-0.16 0.01,-0.42 0.02,-0.78 0.01,-0.36 0.01,-0.75 0.01,-1.16l-2.19 6.45 -1.03 0 -2.19 -6.45 0 0.24c0,0.18 0,0.47 0.01,0.85 0.01,0.39 0.02,0.67 0.02,0.85l0 4.51 -0.99 0 0 -7.64z"/>
  </g>
 </g>
</svg>
