<?xml version="1.0" encoding="UTF-8"?>
<!DOCTYPE svg PUBLIC "-//W3C//DTD SVG 1.1//EN" "http://www.w3.org/Graphics/SVG/1.1/DTD/svg11.dtd">
<!-- Creator: CorelDRAW 2017 -->
<svg xmlns="http://www.w3.org/2000/svg" xml:space="preserve" width="325px" height="33px" version="1.1" style="shape-rendering:geometricPrecision; text-rendering:geometricPrecision; image-rendering:optimizeQuality; fill-rule:evenodd; clip-rule:evenodd"
viewBox="0 0 325 33"
 xmlns:xlink="http://www.w3.org/1999/xlink">
 <defs>
  <style type="text/css">
   <![CDATA[
    .fil4 {fill:none}
    .fil1 {fill:#6E6E6E}
    .fil0 {fill:#F49000}
    .fil2 {fill:#6E6E6E;fill-rule:nonzero}
    .fil3 {fill:#7F7B7A;fill-rule:nonzero}
   ]]>
  </style>
 </defs>
 <g id="Layer_x0020_1">
  <metadata id="CorelCorpID_0Corel-Layer"/>
  <polygon class="fil0" points="45.97,6.38 34.59,6.38 18.96,28.43 30.22,28.43 "/>
  <path class="fil1" d="M3.23 6.38l11.38 0c5.21,7.35 10.42,14.7 15.62,22.05 -2.89,2.78 -9.28,2.43 -11.25,0l-15.75 -22.05z"/>
  <polygon class="fil2" points="57.9,11.26 60.45,11.26 54.29,25.13 52.25,25.13 46.09,11.26 48.69,11.26 53.3,21.97 "/>
  <polygon id="1" class="fil2" points="61.77,25.13 61.77,11.26 64.27,11.26 64.27,25.13 "/>
  <path id="2" class="fil2" d="M71.95 25.3c-1.06,0 -2.05,-0.14 -2.98,-0.42 -0.93,-0.29 -1.71,-0.7 -2.36,-1.23l0.85 -1.83c0.68,0.5 1.38,0.88 2.11,1.12 0.73,0.24 1.53,0.36 2.4,0.36 0.96,0 1.7,-0.17 2.23,-0.51 0.52,-0.34 0.78,-0.81 0.78,-1.42 0,-0.52 -0.24,-0.92 -0.72,-1.2 -0.49,-0.28 -1.29,-0.54 -2.4,-0.79 -1.74,-0.38 -3,-0.86 -3.79,-1.46 -0.79,-0.6 -1.19,-1.47 -1.19,-2.61 0,-0.82 0.22,-1.55 0.66,-2.18 0.44,-0.64 1.07,-1.14 1.88,-1.5 0.81,-0.37 1.74,-0.55 2.8,-0.55 0.98,0 1.9,0.15 2.77,0.44 0.88,0.29 1.6,0.7 2.15,1.22l-0.83 1.83c-1.23,-0.99 -2.59,-1.48 -4.09,-1.48 -0.89,0 -1.59,0.18 -2.11,0.55 -0.52,0.37 -0.78,0.88 -0.78,1.51 0,0.55 0.23,0.96 0.69,1.25 0.46,0.29 1.25,0.55 2.36,0.8 1.15,0.27 2.09,0.57 2.82,0.89 0.72,0.31 1.28,0.72 1.67,1.22 0.39,0.5 0.58,1.13 0.58,1.88 0,0.83 -0.22,1.56 -0.66,2.18 -0.44,0.61 -1.07,1.09 -1.9,1.43 -0.83,0.34 -1.81,0.5 -2.94,0.5z"/>
  <polygon id="3" class="fil2" points="79.78,25.13 79.78,11.26 82.29,11.26 82.29,25.13 "/>
  <path id="4" class="fil2" d="M91.43 25.3c-1.34,0 -2.5,-0.28 -3.49,-0.86 -0.99,-0.58 -1.76,-1.4 -2.3,-2.48 -0.53,-1.07 -0.8,-2.33 -0.8,-3.79 0,-1.44 0.26,-2.7 0.79,-3.77 0.54,-1.07 1.3,-1.89 2.29,-2.46 0.99,-0.57 2.16,-0.86 3.51,-0.86 1.34,0 2.51,0.29 3.5,0.86 1,0.57 1.75,1.39 2.28,2.46 0.52,1.07 0.79,2.33 0.79,3.77 0,1.46 -0.27,2.72 -0.8,3.79 -0.53,1.08 -1.29,1.9 -2.27,2.48 -0.99,0.58 -2.16,0.86 -3.5,0.86zm0 -2c1.28,0 2.28,-0.44 2.99,-1.33 0.71,-0.88 1.07,-2.15 1.07,-3.8 0,-1.63 -0.36,-2.89 -1.07,-3.77 -0.71,-0.87 -1.71,-1.31 -2.99,-1.31 -1.28,0 -2.28,0.43 -3,1.3 -0.71,0.87 -1.06,2.13 -1.06,3.78 0,1.65 0.35,2.92 1.06,3.8 0.72,0.89 1.72,1.33 3,1.33z"/>
  <polygon id="5" class="fil2" points="109.87,11.26 112.22,11.26 112.22,25.13 110.36,25.13 102.89,15.41 102.89,25.13 100.56,25.13 100.56,11.26 102.43,11.26 109.87,20.96 "/>
  <polygon id="6" class="fil2" points="120.56,25.13 120.56,11.26 129.81,11.26 129.81,13.24 123.01,13.24 123.01,17.08 129.4,17.08 129.4,19.07 123.01,19.07 123.01,23.14 129.81,23.14 129.81,25.13 "/>
  <path id="7" class="fil2" d="M132.12 11.26l5.1 0c2.26,0 4.02,0.6 5.27,1.81 1.25,1.21 1.88,2.91 1.88,5.1 0,2.21 -0.63,3.92 -1.88,5.14 -1.25,1.21 -3.01,1.82 -5.27,1.82l-5.1 0 0 -13.87zm4.94 11.82c3.19,0 4.78,-1.63 4.78,-4.91 0,-3.24 -1.59,-4.87 -4.78,-4.87l-2.43 0 0 9.78 2.43 0z"/>
  <path id="8" class="fil2" d="M152.65 25.3c-1.91,0 -3.35,-0.49 -4.33,-1.47 -0.97,-0.98 -1.46,-2.42 -1.46,-4.31l0 -8.26 2.46 0 0 8.39c0,1.2 0.28,2.1 0.84,2.72 0.56,0.62 1.39,0.93 2.49,0.93 1.07,0 1.89,-0.31 2.46,-0.94 0.56,-0.62 0.84,-1.52 0.84,-2.71l0 -8.39 2.47 0 0 8.26c0,1.88 -0.49,3.32 -1.48,4.3 -0.98,0.99 -2.41,1.48 -4.29,1.48z"/>
  <path id="9" class="fil2" d="M167.6 25.3c-1.37,0 -2.55,-0.29 -3.57,-0.87 -1.02,-0.59 -1.8,-1.41 -2.34,-2.49 -0.55,-1.07 -0.82,-2.33 -0.82,-3.77 0,-1.43 0.27,-2.68 0.82,-3.75 0.54,-1.07 1.32,-1.89 2.34,-2.47 1.02,-0.58 2.2,-0.87 3.57,-0.87 0.93,0 1.81,0.15 2.63,0.44 0.82,0.29 1.51,0.7 2.05,1.22l-0.82 1.83c-0.62,-0.51 -1.24,-0.88 -1.85,-1.1 -0.62,-0.23 -1.28,-0.34 -1.98,-0.34 -1.33,0 -2.36,0.43 -3.1,1.3 -0.73,0.87 -1.09,2.12 -1.09,3.74 0,1.64 0.36,2.9 1.08,3.77 0.73,0.88 1.77,1.32 3.11,1.32 0.7,0 1.36,-0.12 1.98,-0.34 0.61,-0.23 1.23,-0.6 1.85,-1.1l0.82 1.83c-0.54,0.52 -1.23,0.92 -2.05,1.22 -0.82,0.29 -1.7,0.43 -2.63,0.43z"/>
  <path id="10" class="fil2" d="M184.95 25.13l-1.38 -3.25 -6.76 0 -1.4 3.25 -2.53 0 6.26 -13.87 2.04 0 6.28 13.87 -2.51 0zm-7.31 -5.2l5.09 0 -2.54 -5.95 -2.55 5.95z"/>
  <polygon id="11" class="fil2" points="190.49,25.13 190.49,13.32 185.98,13.32 185.98,11.26 197.54,11.26 197.54,13.32 193.02,13.32 193.02,25.13 "/>
  <polygon id="12" class="fil2" points="199.27,25.13 199.27,11.26 201.78,11.26 201.78,25.13 "/>
  <path id="13" class="fil2" d="M210.92 25.3c-1.34,0 -2.5,-0.28 -3.49,-0.86 -0.99,-0.58 -1.76,-1.4 -2.3,-2.48 -0.53,-1.07 -0.8,-2.33 -0.8,-3.79 0,-1.44 0.26,-2.7 0.79,-3.77 0.54,-1.07 1.3,-1.89 2.29,-2.46 0.99,-0.57 2.16,-0.86 3.51,-0.86 1.34,0 2.51,0.29 3.5,0.86 0.99,0.57 1.75,1.39 2.28,2.46 0.52,1.07 0.79,2.33 0.79,3.77 0,1.46 -0.27,2.72 -0.8,3.79 -0.53,1.08 -1.29,1.9 -2.27,2.48 -0.99,0.58 -2.16,0.86 -3.5,0.86zm0 -2c1.28,0 2.28,-0.44 2.99,-1.33 0.71,-0.88 1.07,-2.15 1.07,-3.8 0,-1.63 -0.36,-2.89 -1.07,-3.77 -0.71,-0.87 -1.71,-1.31 -2.99,-1.31 -1.29,0 -2.28,0.43 -3,1.3 -0.71,0.87 -1.07,2.13 -1.07,3.78 0,1.65 0.36,2.92 1.07,3.8 0.72,0.89 1.71,1.33 3,1.33z"/>
  <polygon id="14" class="fil2" points="229.36,11.26 231.71,11.26 231.71,25.13 229.85,25.13 222.38,15.41 222.38,25.13 220.05,25.13 220.05,11.26 221.92,11.26 229.36,20.96 "/>
  <path id="15" class="fil2" d="M251.59 17.63l0 6.66c-0.63,0.31 -1.4,0.56 -2.29,0.74 -0.89,0.18 -1.81,0.27 -2.74,0.27 -1.43,0 -2.66,-0.28 -3.71,-0.85 -1.05,-0.57 -1.85,-1.39 -2.41,-2.46 -0.56,-1.06 -0.84,-2.34 -0.84,-3.82 0,-1.45 0.28,-2.71 0.84,-3.78 0.56,-1.06 1.35,-1.88 2.38,-2.45 1.03,-0.57 2.24,-0.86 3.62,-0.86 0.98,0 1.89,0.14 2.74,0.43 0.84,0.29 1.55,0.69 2.12,1.21l-0.85 1.83c-0.65,-0.51 -1.29,-0.87 -1.91,-1.09 -0.62,-0.22 -1.3,-0.33 -2.04,-0.33 -1.42,0 -2.5,0.43 -3.23,1.28 -0.74,0.86 -1.1,2.11 -1.1,3.76 0,1.7 0.37,2.99 1.12,3.85 0.76,0.87 1.88,1.3 3.37,1.3 0.9,0 1.8,-0.13 2.68,-0.37l0 -3.51 -2.99 0 0 -1.81 5.24 0z"/>
  <path id="16" class="fil2" d="M265.8 25.13l-2.64 0 -1.77 -4.62c-0.16,-0.43 -0.4,-0.73 -0.72,-0.9 -0.32,-0.16 -0.75,-0.25 -1.26,-0.25l-2.51 0 0 5.77 -2.49 0 0 -13.87 5.93 0c1.57,0 2.76,0.34 3.58,1.03 0.81,0.69 1.22,1.67 1.22,2.96 0,0.92 -0.24,1.71 -0.73,2.35 -0.48,0.64 -1.17,1.1 -2.07,1.37 0.82,0.17 1.41,0.74 1.77,1.72l1.69 4.44zm-5.81 -7.72c0.95,0 1.65,-0.17 2.1,-0.52 0.45,-0.35 0.68,-0.89 0.68,-1.6 0,-0.7 -0.22,-1.23 -0.67,-1.57 -0.45,-0.34 -1.15,-0.52 -2.11,-0.52l-3.13 0 0 4.21 3.13 0z"/>
  <path id="17" class="fil2" d="M274.1 25.3c-1.33,0 -2.5,-0.28 -3.49,-0.86 -0.99,-0.58 -1.76,-1.4 -2.29,-2.48 -0.54,-1.07 -0.81,-2.33 -0.81,-3.79 0,-1.44 0.27,-2.7 0.8,-3.77 0.53,-1.07 1.29,-1.89 2.28,-2.46 0.99,-0.57 2.16,-0.86 3.51,-0.86 1.35,0 2.52,0.29 3.51,0.86 0.99,0.57 1.75,1.39 2.27,2.46 0.53,1.07 0.79,2.33 0.79,3.77 0,1.46 -0.27,2.72 -0.8,3.79 -0.53,1.08 -1.29,1.9 -2.27,2.48 -0.99,0.58 -2.15,0.86 -3.5,0.86zm0 -2c1.28,0 2.28,-0.44 2.99,-1.33 0.72,-0.88 1.07,-2.15 1.07,-3.8 0,-1.63 -0.35,-2.89 -1.07,-3.77 -0.71,-0.87 -1.71,-1.31 -2.99,-1.31 -1.28,0 -2.28,0.43 -2.99,1.3 -0.72,0.87 -1.07,2.13 -1.07,3.78 0,1.65 0.35,2.92 1.07,3.8 0.71,0.89 1.71,1.33 2.99,1.33z"/>
  <path id="18" class="fil2" d="M288.95 25.3c-1.91,0 -3.35,-0.49 -4.33,-1.47 -0.98,-0.98 -1.46,-2.42 -1.46,-4.31l0 -8.26 2.46 0 0 8.39c0,1.2 0.28,2.1 0.84,2.72 0.56,0.62 1.39,0.93 2.49,0.93 1.07,0 1.89,-0.31 2.46,-0.94 0.56,-0.62 0.84,-1.52 0.84,-2.71l0 -8.39 2.47 0 0 8.26c0,1.88 -0.49,3.32 -1.48,4.3 -0.98,0.99 -2.41,1.48 -4.29,1.48z"/>
  <path id="19" class="fil2" d="M297.62 11.26l6 0c1.49,0 2.65,0.36 3.48,1.08 0.83,0.72 1.25,1.7 1.25,2.95 0,1.25 -0.42,2.23 -1.26,2.96 -0.83,0.73 -1.99,1.09 -3.47,1.09l-3.5 0 0 5.79 -2.5 0 0 -13.87zm5.71 6.13c0.87,0 1.53,-0.18 1.97,-0.53 0.45,-0.36 0.67,-0.88 0.67,-1.55 0,-0.69 -0.22,-1.21 -0.66,-1.57 -0.44,-0.36 -1.1,-0.54 -1.98,-0.54l-3.21 0 0 4.19 3.21 0z"/>
  <polygon class="fil3" points="313.51,2.61 313.51,3.51 310.93,3.51 310.93,10.25 309.89,10.25 309.89,3.51 307.31,3.51 307.31,2.61 "/>
  <path id="1" class="fil3" d="M314.44 2.61l1.48 0 2.2 6.46 2.18 -6.46 1.47 0 0 7.64 -0.99 0 0 -4.51c0,-0.16 0.01,-0.41 0.02,-0.77 0.01,-0.36 0.02,-0.75 0.02,-1.16l-2.2 6.44 -1.02 0 -2.2 -6.44 0 0.23c0,0.19 0,0.47 0.01,0.86 0.01,0.38 0.02,0.66 0.02,0.84l0 4.51 -0.99 0 0 -7.64z"/>
  <rect class="fil4" width="325" height="33"/>
 </g>
</svg>
