<?xml version="1.0" encoding="UTF-8"?>
<!DOCTYPE svg PUBLIC "-//W3C//DTD SVG 1.1//EN" "http://www.w3.org/Graphics/SVG/1.1/DTD/svg11.dtd">
<!-- Creator: CorelDRAW 2017 -->
<svg xmlns="http://www.w3.org/2000/svg" xml:space="preserve" width="288px" height="36px" version="1.1" style="shape-rendering:geometricPrecision; text-rendering:geometricPrecision; image-rendering:optimizeQuality; fill-rule:evenodd; clip-rule:evenodd"
viewBox="0 0 288 36"
 xmlns:xlink="http://www.w3.org/1999/xlink">
 <defs>
  <style type="text/css">
   <![CDATA[
    .fil0 {fill:#25609D;fill-rule:nonzero}
    .fil1 {fill:#BFC8CC;fill-rule:nonzero}
   ]]>
  </style>
 </defs>
 <g id="Layer_x0020_1">
  <metadata id="CorelCorpID_0Corel-Layer"/>
  <path class="fil0" d="M11.5 22.46l5.17 -20.26c0.45,-0.12 1.12,-0.18 2,-0.18 0.88,0 1.64,0.11 2.28,0.32l0.22 0.29 -6.89 23.93c-0.95,0.12 -2.03,0.18 -3.26,0.18 -1.22,0 -2.1,-0.15 -2.62,-0.45 -0.52,-0.3 -0.9,-0.89 -1.14,-1.77l-6.24 -21.89c1.07,-0.48 2,-0.71 2.78,-0.71 0.79,0 1.38,0.18 1.78,0.55 0.41,0.37 0.72,0.97 0.93,1.8l3.21 11.48c0.5,1.83 0.99,3.94 1.46,6.31 0.05,0.27 0.16,0.4 0.32,0.4z"/>
  <path id="1" class="fil0" d="M39.2 8.51c1.15,0 2.36,0.32 3.64,0.97l0 -8.92 0.25 -0.25 1.78 0c0.93,0 1.59,0.22 1.97,0.64 0.38,0.43 0.57,1.18 0.57,2.25l0 18.26c0,1.45 0.33,2.44 0.99,2.96 -0.09,0.43 -0.29,0.88 -0.58,1.35 -0.3,0.48 -0.62,0.83 -0.95,1.07 -1.54,-0.14 -2.66,-0.84 -3.35,-2.1 -1.4,1.54 -3.1,2.32 -5.1,2.32 -1.02,0 -1.92,-0.22 -2.69,-0.66 -0.77,-0.44 -1.42,-1.06 -1.95,-1.86 -0.52,-0.79 -0.91,-1.76 -1.17,-2.9 -0.26,-1.14 -0.4,-2.43 -0.4,-3.85 0,-1.46 0.19,-2.75 0.56,-3.89 0.37,-1.14 0.87,-2.11 1.5,-2.91 0.63,-0.79 1.36,-1.41 2.21,-1.83 0.84,-0.43 1.75,-0.65 2.72,-0.65zm0.43 14.73c1.24,0 2.31,-0.59 3.21,-1.78l0 -8.35c-0.52,-0.33 -1.02,-0.58 -1.5,-0.76 -0.47,-0.18 -0.91,-0.27 -1.32,-0.27 -0.92,0 -1.67,0.49 -2.22,1.46 -0.56,0.98 -0.84,2.41 -0.84,4.32 0,1.85 0.25,3.21 0.75,4.08 0.5,0.87 1.14,1.3 1.92,1.3z"/>
  <path id="2" class="fil0" d="M23.34 6.04c0,-0.75 0.28,-1.4 0.82,-1.95 0.54,-0.54 1.2,-0.82 1.96,-0.82 0.77,0 1.42,0.28 1.97,0.82 0.54,0.55 0.81,1.2 0.81,1.95 0,0.77 -0.27,1.43 -0.81,1.98 -0.55,0.54 -1.2,0.81 -1.97,0.81 -0.76,0 -1.42,-0.27 -1.96,-0.81 -0.54,-0.55 -0.82,-1.21 -0.82,-1.98zm0.57 5.54l4.46 0 0 14.98 -4.46 0 0 -14.98z"/>
  <path id="3" class="fil0" d="M52.36 3.31l4.53 0 0 10.02c0.81,-0.7 1.56,-1.21 2.26,-1.52 0.69,-0.32 1.5,-0.48 2.41,-0.48 1.56,0 2.78,0.56 3.67,1.7 0.89,1.13 1.32,2.7 1.32,4.71l0 8.82 -4.52 0 0 -8.03c0,-0.97 -0.25,-1.78 -0.74,-2.43 -0.48,-0.66 -1.08,-0.99 -1.79,-0.99 -0.9,0 -1.56,0.38 -1.98,1.14 -0.42,0.75 -0.63,1.93 -0.63,3.53l0 6.78 -4.53 0 0 -23.25z"/>
  <path id="4" class="fil0" d="M97.23 26.56l0 -2.57 -0.07 0c-0.69,1 -1.39,1.73 -2.1,2.18 -0.7,0.45 -1.58,0.67 -2.62,0.67 -1.74,0 -3.23,-0.75 -4.45,-2.26 -1.23,-1.51 -1.85,-3.34 -1.85,-5.51 0,-2.13 0.66,-3.96 1.96,-5.49 1.31,-1.52 2.86,-2.29 4.66,-2.29 0.85,0 1.62,0.2 2.3,0.57 0.69,0.37 1.41,0.97 2.17,1.79l0 -2.07 4.46 0 0 14.98 -4.46 0zm-3.26 -10.81c-0.88,0 -1.61,0.35 -2.2,1.05 -0.59,0.71 -0.88,1.59 -0.88,2.66 0,0.99 0.28,1.8 0.83,2.4 0.57,0.61 1.31,0.92 2.22,0.92 0.87,0 1.63,-0.35 2.25,-1.05 0.63,-0.71 0.94,-1.56 0.94,-2.55 0,-0.93 -0.31,-1.73 -0.94,-2.41 -0.62,-0.68 -1.36,-1.02 -2.22,-1.02z"/>
  <polygon id="5" class="fil0" points="106.36,3.31 110.81,3.31 110.81,26.56 106.36,26.56 "/>
  <path id="6" class="fil0" d="M125.32 26.56l0 -2.57 -0.07 0c-0.7,1 -1.39,1.73 -2.1,2.18 -0.71,0.45 -1.58,0.67 -2.62,0.67 -1.75,0 -3.23,-0.75 -4.46,-2.26 -1.23,-1.51 -1.84,-3.34 -1.84,-5.51 0,-2.13 0.65,-3.96 1.96,-5.49 1.31,-1.52 2.86,-2.29 4.66,-2.29 0.85,0 1.62,0.2 2.3,0.57 0.68,0.37 1.41,0.97 2.17,1.79l0 -2.07 4.46 0 0 14.98 -4.46 0zm-3.26 -10.81c-0.88,0 -1.61,0.35 -2.2,1.05 -0.59,0.71 -0.89,1.59 -0.89,2.66 0,0.99 0.28,1.8 0.84,2.4 0.57,0.61 1.3,0.92 2.21,0.92 0.88,0 1.64,-0.35 2.26,-1.05 0.62,-0.71 0.93,-1.56 0.93,-2.55 0,-0.93 -0.31,-1.73 -0.93,-2.41 -0.62,-0.68 -1.37,-1.02 -2.22,-1.02z"/>
  <path id="7" class="fil0" d="M160.53 26.56l0 -2.57 -0.07 0c-0.7,1 -1.39,1.73 -2.1,2.18 -0.71,0.45 -1.58,0.67 -2.62,0.67 -1.75,0 -3.23,-0.75 -4.46,-2.26 -1.23,-1.51 -1.84,-3.34 -1.84,-5.51 0,-2.13 0.65,-3.96 1.96,-5.49 1.31,-1.52 2.86,-2.29 4.65,-2.29 0.86,0 1.63,0.2 2.31,0.57 0.68,0.37 1.41,0.97 2.17,1.79l0 -2.07 4.46 0 0 14.98 -4.46 0zm-3.26 -10.81c-0.88,0 -1.61,0.35 -2.2,1.05 -0.59,0.71 -0.89,1.59 -0.89,2.66 0,0.99 0.28,1.8 0.84,2.4 0.56,0.61 1.3,0.92 2.21,0.92 0.88,0 1.63,-0.35 2.26,-1.05 0.62,-0.71 0.93,-1.56 0.93,-2.55 0,-0.93 -0.31,-1.73 -0.93,-2.41 -0.63,-0.68 -1.37,-1.02 -2.22,-1.02z"/>
  <path id="8" class="fil0" d="M70.85 30.47l0.87 0.09c1.28,0 2.17,-0.65 2.69,-1.95l0.51 -1.3 -6 -16.95 4.91 0 2.85 9.84 0.2 0.94 0.08 0 3.24 -10.78 4.93 0 -6.88 19.51c-0.27,0.66 -0.55,1.23 -0.84,1.7 -0.3,0.48 -0.66,0.92 -1.09,1.34 -0.89,0.84 -2.13,1.25 -3.73,1.25 -0.5,0 -1.25,-0.11 -2.26,-0.36l0.52 -3.33z"/>
  <path id="9" class="fil0" d="M134.15 30.47l0.86 0.09c1.28,0 2.18,-0.65 2.69,-1.95l0.52 -1.3 -6.01 -16.95 4.91 0 2.86 9.84 0.19 0.94 0.09 0 3.24 -10.78 4.92 0 -6.87 19.51c-0.27,0.66 -0.55,1.23 -0.85,1.7 -0.3,0.48 -0.66,0.92 -1.09,1.34 -0.88,0.84 -2.12,1.25 -3.72,1.25 -0.5,0 -1.26,-0.11 -2.27,-0.36l0.53 -3.33z"/>
  <path id="10" class="fil1" d="M179.01 11.9c1.14,0 2.09,0.45 2.84,1.36 0.76,0.91 1.14,2.17 1.14,3.78 0,2.58 -0.91,4.89 -2.72,6.94 -1.82,2.05 -3.73,3.08 -5.76,3.08 -1.24,0 -2.24,-0.41 -3,-1.22 -0.76,-0.82 -1.15,-1.93 -1.15,-3.33 0,-2.44 0.7,-4.69 2.1,-6.76 1.75,-2.57 3.94,-3.85 6.55,-3.85zm-1.48 1.32c-0.99,0 -1.94,0.71 -2.86,2.12 -0.92,1.4 -1.38,3.35 -1.38,5.83 0,1.51 0.28,2.7 0.85,3.57 0.42,0.64 0.97,0.96 1.67,0.96 0.97,0 1.85,-0.6 2.66,-1.81 1.01,-1.56 1.52,-3.51 1.52,-5.83 0,-1.74 -0.23,-2.99 -0.7,-3.73 -0.47,-0.74 -1.06,-1.11 -1.76,-1.11z"/>
  <path id="11" class="fil1" d="M185.21 13.04l4.16 0c0.68,-2.9 1.47,-5.05 2.35,-6.48 0.88,-1.41 2.03,-2.53 3.45,-3.35 1.41,-0.81 2.75,-1.22 4,-1.22 0.71,0 1.24,0.14 1.6,0.42 0.36,0.28 0.54,0.61 0.54,0.99 0,0.35 -0.12,0.64 -0.36,0.88 -0.25,0.23 -0.57,0.35 -0.96,0.35 -0.41,0 -1.17,-0.12 -2.3,-0.37 -0.55,-0.11 -0.99,-0.17 -1.3,-0.17 -0.77,0 -1.46,0.47 -2.07,1.42 -0.62,0.94 -1.11,2.22 -1.48,3.83l-0.91 3.7 4.63 0 -0.28 1.25 -4.66 0 -2.74 11.12c-0.84,3.38 -2.2,5.93 -4.06,7.67 -1.86,1.74 -3.88,2.61 -6.06,2.61 -0.73,0 -1.29,-0.15 -1.67,-0.43 -0.37,-0.28 -0.56,-0.63 -0.56,-1.04 0,-0.36 0.13,-0.64 0.39,-0.85 0.26,-0.22 0.64,-0.32 1.12,-0.32 0.25,0 0.6,0.03 1.08,0.09 0.81,0.1 1.59,0.16 2.33,0.16 1.15,0 1.99,-0.28 2.51,-0.82 0.52,-0.54 1.04,-1.86 1.57,-3.97l3.53 -14.22 -4.16 0 0.31 -1.25z"/>
  <path id="12" class="fil1" d="M222.16 1.99l0.26 0.25 0 24.25c-0.74,0.16 -1.67,0.25 -2.79,0.25 -1.11,0 -2.09,-0.06 -2.92,-0.18l-6.56 -13.8c-0.95,-2.09 -1.67,-3.76 -2.14,-5l-0.14 0.04c0.26,3.35 0.39,6.59 0.39,9.7l0 9.06c-0.67,0.12 -1.42,0.18 -2.27,0.18 -0.84,0 -1.57,-0.06 -2.19,-0.18l0 -24.29c0.69,-0.16 1.59,-0.25 2.71,-0.25 1.12,0 2.09,0.06 2.92,0.18l6.49 13.8 2.32 5.28 0.11 -0.04c-0.24,-3.44 -0.36,-6.7 -0.36,-9.77l0 -6.52c0,-1.07 0.21,-1.83 0.61,-2.28 0.4,-0.46 1.08,-0.68 2.03,-0.68l1.53 0z"/>
  <path id="13" class="fil1" d="M241.42 20.14l-10.66 0c0.06,0.96 0.37,1.74 0.95,2.34 0.57,0.6 1.24,0.9 2.01,0.9 1.36,0 2.44,-0.61 3.22,-1.85l4.09 1.36c-1.52,2.66 -3.88,3.99 -7.09,3.99 -2.36,0 -4.23,-0.71 -5.62,-2.14 -1.4,-1.43 -2.09,-3.35 -2.09,-5.77 0,-2.17 0.73,-3.99 2.2,-5.46 1.47,-1.48 3.27,-2.22 5.42,-2.22 2.16,0 3.96,0.78 5.41,2.33 1.44,1.55 2.16,3.48 2.16,5.81l0 0.71zm-10.66 -3l6.06 0c-0.42,-1.87 -1.38,-2.81 -2.89,-2.81 -0.87,0 -1.58,0.24 -2.15,0.73 -0.56,0.49 -0.9,1.19 -1.02,2.08z"/>
  <path id="14" class="fil1" d="M249.12 11.58l0 2.18 0.07 0c0.65,-0.86 1.33,-1.48 2.03,-1.88 0.7,-0.39 1.55,-0.59 2.53,-0.59 1.79,0 3.31,0.79 4.57,2.35 1.26,1.57 1.89,3.47 1.89,5.71 0,2.06 -0.61,3.82 -1.83,5.29 -1.23,1.47 -2.68,2.2 -4.37,2.2 -1.03,0 -1.89,-0.21 -2.59,-0.65 -0.69,-0.42 -1.41,-1.11 -2.16,-2.06l-0.07 0 0 9.02 -4.53 0 0 -21.57 4.46 0zm6.42 7.74c0,-0.98 -0.31,-1.81 -0.94,-2.52 -0.62,-0.7 -1.37,-1.05 -2.24,-1.05 -0.86,0 -1.59,0.35 -2.19,1.04 -0.6,0.69 -0.91,1.53 -0.91,2.53 0,0.96 0.32,1.78 0.95,2.46 0.64,0.69 1.4,1.03 2.31,1.03 0.88,0 1.6,-0.32 2.17,-0.97 0.57,-0.65 0.85,-1.49 0.85,-2.52z"/>
  <path id="15" class="fil1" d="M273.4 26.56l0 -2.57 -0.07 0c-0.7,1 -1.39,1.73 -2.1,2.18 -0.71,0.45 -1.58,0.67 -2.62,0.67 -1.75,0 -3.23,-0.75 -4.46,-2.26 -1.23,-1.51 -1.84,-3.34 -1.84,-5.51 0,-2.13 0.65,-3.96 1.96,-5.49 1.31,-1.52 2.86,-2.29 4.65,-2.29 0.86,0 1.63,0.2 2.31,0.57 0.68,0.37 1.41,0.97 2.17,1.79l0 -2.07 4.46 0 0 14.98 -4.46 0zm-3.26 -10.81c-0.88,0 -1.61,0.35 -2.2,1.05 -0.59,0.71 -0.89,1.59 -0.89,2.66 0,0.99 0.28,1.8 0.84,2.4 0.56,0.61 1.3,0.92 2.21,0.92 0.88,0 1.63,-0.35 2.26,-1.05 0.62,-0.71 0.93,-1.56 0.93,-2.55 0,-0.93 -0.31,-1.73 -0.93,-2.41 -0.63,-0.68 -1.37,-1.02 -2.22,-1.02z"/>
  <polygon id="16" class="fil1" points="282.52,3.31 286.98,3.31 286.98,26.56 282.52,26.56 "/>
 </g>
</svg>
