<?xml version="1.0" encoding="UTF-8"?>
<!DOCTYPE svg PUBLIC "-//W3C//DTD SVG 1.1//EN" "http://www.w3.org/Graphics/SVG/1.1/DTD/svg11.dtd">
<!-- Creator: CorelDRAW 2017 -->
<svg xmlns="http://www.w3.org/2000/svg" xml:space="preserve" width="404px" height="36px" version="1.1" style="shape-rendering:geometricPrecision; text-rendering:geometricPrecision; image-rendering:optimizeQuality; fill-rule:evenodd; clip-rule:evenodd"
viewBox="0 0 404 36"
 xmlns:xlink="http://www.w3.org/1999/xlink">
 <defs>
  <style type="text/css">
   <![CDATA[
    .fil1 {fill:#24B4D0;fill-rule:nonzero}
    .fil0 {fill:#666666;fill-rule:nonzero}
   ]]>
  </style>
 </defs>
 <g id="Layer_x0020_1">
  <metadata id="CorelCorpID_0Corel-Layer"/>
  <path class="fil0" d="M213.79 20.29l0.27 -2.12c0.71,-5.25 -3.41,-9.44 -10.03,-9.44 -6.63,0 -11.88,4.11 -12.58,9.25 -0.71,5.13 3.45,10.27 10.11,10.27 4.39,0 8.23,-2.03 10.47,-4.97l0.74 -0.98 -0.98 -0.44c0,0 -2.71,-1.33 -5.29,0.36 -1.26,0.82 -2.71,1.29 -4.31,1.29 -2.63,0 -4.79,-1.89 -5.65,-3.22l17.25 0zm-16.7 -4.51c1.22,-1.33 3.61,-2.31 6.31,-2.31 2.67,0 4.78,0.94 5.61,2.31l-11.92 0z"/>
  <path class="fil0" d="M168.04 10.26c-0.94,-0.47 -1.72,-0.94 -4.19,-0.94 -3.02,0 -5.49,0.9 -7.49,2.15l0.43 -3.29 -5.29 3.25 -2.08 15.41 4.87 0 0.98 -7.33c0.23,-1.69 1.37,-3.02 2.7,-3.92 1.22,-0.82 2.78,-1.49 4.82,-1.49 1.88,0 1.88,0.15 2.51,0.59l0.9 0.62 2.67 -4.62 -0.83 -0.43z"/>
  <path class="fil0" d="M233.03 10.26c-0.94,-0.47 -1.72,-0.94 -4.19,-0.94 -3.02,0 -5.49,0.9 -7.49,2.15l0.43 -3.29 -5.29 3.25 -2.08 15.41 4.86 0 0.99 -7.33c0.23,-1.69 1.37,-3.02 2.7,-3.92 1.22,-0.82 2.78,-1.49 4.82,-1.49 1.88,0 1.88,0.15 2.51,0.59l0.9 0.62 2.67 -4.62 -0.83 -0.43z"/>
  <path class="fil0" d="M354.33 8.34c1.85,0 3.61,-1.49 3.85,-3.38 0.23,-1.88 -1.1,-3.37 -2.94,-3.37 -1.85,0 -3.65,1.49 -3.89,3.37 -0.23,1.89 1.14,3.38 2.98,3.38zm2.32 0.82l-4.82 0 -2.4 17.68 4.83 0 2.39 -17.68z"/>
  <path class="fil0" d="M402.56 20.29l0.27 -2.12c0.71,-5.25 -3.41,-9.44 -10.03,-9.44 -6.63,0 -11.88,4.11 -12.59,9.25 -0.7,5.13 3.45,10.27 10.12,10.27 4.39,0 8.23,-2.03 10.46,-4.97l0.75 -0.98 -0.98 -0.44c0,0 -2.71,-1.33 -5.29,0.36 -1.26,0.82 -2.71,1.29 -4.32,1.29 -2.62,0 -4.78,-1.89 -5.64,-3.22l17.25 0zm-16.7 -4.51c1.21,-1.33 3.6,-2.31 6.31,-2.31 2.66,0 4.78,0.94 5.6,2.31l-11.91 0z"/>
  <path class="fil0" d="M358.02 18.02c-0.16,1.29 -0.08,2.55 0.23,3.68 0.94,3.26 4.08,5.57 9.84,5.57 4.08,0 7.45,-1.18 9.73,-2.67l0.51 -0.35 -0.2 -5.56 -2.47 1.88c-1.57,1.09 -4,1.88 -6.94,1.88 -3.37,0 -6.04,-1.45 -5.64,-4.47 0.07,-0.63 0.35,-1.26 0.74,-1.8 1.14,-1.53 3.18,-2.67 6.35,-2.67 3.14,0 4.41,0.57 4.82,3.25l0.4 2.55 3.6 -6.19 -0.15 -0.43c-1.28,-3.52 -5.22,-3.96 -8.28,-3.96 -6.39,0 -11.76,3.37 -12.54,9.29z"/>
  <polygon class="fil0" points="325.95,9.16 335.79,28.33 350.84,9.16 345.35,9.16 336.89,20.57 331.48,9.16 "/>
  <path class="fil0" d="M324.5 10.26c-0.94,-0.47 -1.73,-0.94 -4.2,-0.94 -3.01,0 -5.48,0.9 -7.48,2.15l0.43 -3.29 -5.29 3.25 -2.08 15.41 4.86 0 0.98 -7.33c0.24,-1.69 1.37,-3.02 2.7,-3.92 1.22,-0.82 2.79,-1.49 4.83,-1.49 1.88,0 1.88,0.15 2.5,0.59l0.91 0.62 2.66 -4.62 -0.82 -0.43z"/>
  <path class="fil0" d="M304.27 20.29l0.27 -2.12c0.71,-5.25 -3.4,-9.44 -10.03,-9.44 -6.62,0 -11.88,4.11 -12.58,9.25 -0.71,5.13 3.45,10.27 10.11,10.27 4.39,0 8.23,-2.03 10.47,-4.97l0.74 -0.98 -0.98 -0.44c0,0 -2.71,-1.33 -5.29,0.36 -1.25,0.82 -2.7,1.29 -4.31,1.29 -2.63,0 -4.78,-1.89 -5.65,-3.22l17.25 0zm-16.7 -4.51c1.22,-1.33 3.61,-2.31 6.31,-2.31 2.67,0 4.79,0.94 5.61,2.31l-11.92 0z"/>
  <path class="fil0" d="M276.72 10.26l0.51 0.04 3.45 -3.57 -0.78 -0.63c-1.57,-1.14 -2.59,-2.39 -9.18,-2.39 -5.64,0 -9.6,3.21 -10.07,6.7 -0.67,4.9 4,5.77 8.27,6.43 3.73,0.59 6.74,0.9 6.47,3.02 -0.2,1.45 -2.74,2.59 -5.29,2.59 -5.61,0 -6.08,-1.57 -7.73,-1.73l-0.54 -0.04 -3.45 3.57 0.82 0.63c1.76,1.25 3.68,2.39 10.27,2.39 5.37,0 10.35,-3.18 10.86,-6.94 0.74,-5.53 -4.31,-6.55 -9.29,-7.33 -3.06,-0.51 -5.57,-0.71 -5.37,-2.12 0.19,-1.53 1.64,-2.39 4.39,-2.35 5.68,0 4.19,1.61 6.66,1.73z"/>
  <path class="fil0" d="M234.12 24.68c1.96,2.16 5.41,2.59 8.98,2.59 7.05,0 9.99,-2.67 10.42,-5.88 0.36,-2.63 -1.33,-3.96 -3.25,-4.63 -3.06,-0.94 -7.72,-0.7 -10.39,-1.37 -0.94,-0.23 -0.94,-0.31 -0.9,-0.59 0.08,-0.7 1.57,-1.33 4.82,-1.33 3.73,0 5.37,0.51 6.47,1.61l1.25 1.41 1.1 -4.86 -0.19 -0.28c-1.38,-2.07 -5.02,-2.62 -8.31,-2.62 -5.77,0 -9.69,2.35 -10.12,5.49 -0.47,3.44 2.51,4.58 5.57,5.01 2.66,0.36 5.96,0.4 7.88,0.87 0.94,0.23 1.14,0.35 1.1,0.7 -0.16,1.06 -1.69,1.73 -5.14,1.73 -4.08,0 -5.88,-0.47 -7.8,-2.47l-1.76 -1.89 0.04 6.28 0.23 0.23z"/>
  <path class="fil0" d="M189.64 20.29l0.27 -2.12c0.71,-5.25 -3.41,-9.44 -10.03,-9.44 -6.63,0 -11.88,4.11 -12.58,9.25 -0.71,5.13 3.45,10.27 10.11,10.27 4.39,0 8.23,-2.03 10.47,-4.97l0.74 -0.98 -0.98 -0.44c0,0 -2.71,-1.33 -5.29,0.36 -1.26,0.82 -2.71,1.29 -4.31,1.29 -2.63,0 -4.79,-1.89 -5.65,-3.22l17.25 0zm-16.7 -4.51c1.22,-1.33 3.61,-2.31 6.31,-2.31 2.67,0 4.78,0.94 5.61,2.31l-11.92 0z"/>
  <path class="fil0" d="M131.12 10.31l2.12 3.84 0.9 -0.78c1.51,-1.33 2.98,-1.38 5.76,-1.38 2.98,0 3.49,1.78 3.49,3.13l0 0.19c-0.94,-0.23 -2.47,-0.54 -4.08,-0.54 -5.53,0 -10.03,1.68 -10.66,6.38 -0.51,3.77 2.55,6.12 7.49,6.12 2.47,0 4.54,-0.82 6.15,-1.69l-0.16 1.26 4.55 0 1.53 -11.45c0.59,-4.39 -2.04,-8.14 -7.68,-8.14 -4.2,0 -6.74,0.95 -8.67,2.47l-0.74 0.59zm2.59 10.8c0.15,-1.21 1.84,-1.68 4.97,-1.68 1.53,0 3.14,0.23 4.08,0.43l-0.12 0.82c-0.82,0.55 -3.25,1.93 -5.72,1.93 -2.43,0 -3.37,-0.47 -3.21,-1.5l0 0z"/>
  <path class="fil0" d="M105.64 15.47c-0.94,7.06 2.62,11.8 10.43,11.8 4.19,0 7.44,-1.1 9.95,-2.71l0.55 -0.31 0 -6 -2.7 2.28c-1.61,1.17 -4.08,1.92 -7.18,1.92 -4.11,0 -6.5,-3.41 -6.03,-6.98 0.54,-4.04 4.5,-6.98 8.07,-6.98 3.41,0 5.25,1.3 4.9,3.77l-0.12 0.94 4.55 0.15 0.12 -1.02c0.51,-3.76 -1.02,-8.62 -8.94,-8.62 -8.39,0 -12.86,6.31 -13.6,11.76z"/>
  <path class="fil1" d="M16.18 25.78c0.32,0.75 1.06,1.06 1.81,1.06l2.9 0 3.05 -22.74 -4.82 0 -1.88 14 -7.06 -12.94c-0.39,-0.74 -1.33,-1.06 -2.23,-1.06l-3.8 0 -3.06 22.74 5.02 0 2.15 -15.6 7.92 14.54zm30.89 -5.49l0.28 -2.12c0.7,-5.25 -3.41,-9.44 -10.04,-9.44 -6.62,0 -11.88,4.11 -12.58,9.25 -0.71,5.13 3.45,10.27 10.11,10.27 4.39,0 8.23,-1.54 10.47,-4.48l0.74 -0.98 -0.98 -0.43c0,0 -2.7,-1.34 -5.29,0.35 -1.25,0.82 -2.7,0.8 -4.31,0.8 -2.63,0 -4.78,-1.89 -5.64,-3.22l17.24 0zm-16.7 -4.51c1.22,-1.33 3.61,-2.31 6.32,-2.31 2.66,0 4.78,0.94 5.6,2.31l-11.92 0zm25.17 -5.21l0.2 -1.41 -4.63 0 -3.06 22.54 4.39 3.57 1.3 -9.73c1.41,1.02 3.41,1.73 5.92,1.73 5.56,0 10.58,-3.76 11.32,-9.25 0.63,-4.55 -1.99,-9.29 -8.85,-9.29 -2.59,0 -4.79,0.74 -6.59,1.84l0 0zm-0.78 7.45c0.35,-2.63 2.78,-4.39 6.47,-4.39 3.09,0 4.97,1.96 4.66,4.39 -0.31,2.19 -2.55,4.19 -5.84,4.19 -3.61,0 -5.57,-2.04 -5.29,-4.19zm19.79 -7.22l2.12 3.84 0.9 -0.78c1.52,-1.32 2.98,-1.37 5.76,-1.37 2.98,0 3.49,1.28 3.49,2.63l0 0.19c-0.94,-0.23 -2.47,-0.54 -4.08,-0.54 -5.52,0 -10.03,1.68 -10.66,6.38 -0.51,3.77 2.55,6.12 7.49,6.12 2.47,0 4.55,-0.82 6.15,-1.69l-0.15 1.26 4.54 0 1.53 -11.45c0.59,-4.39 -2.03,-7.65 -7.68,-7.65 -4.2,0 -6.73,0.95 -8.66,2.47l-0.75 0.59zm2.59 10.31c0.16,-1.21 1.84,-1.68 4.98,-1.68 1.53,0 3.13,0.23 4.07,0.43l-0.11 0.82c-0.83,0.55 -3.26,1.93 -5.73,1.93 -2.43,0 -3.37,-0.47 -3.21,-1.5l0 0zm20.62 5.73l3.53 -26.11 -5.3 3.57 -3.05 22.54 4.82 0z"/>
 </g>
</svg>
