<?xml version="1.0" encoding="UTF-8"?>
<!DOCTYPE svg PUBLIC "-//W3C//DTD SVG 1.1//EN" "http://www.w3.org/Graphics/SVG/1.1/DTD/svg11.dtd">
<!-- Creator: CorelDRAW 2017 -->
<svg xmlns="http://www.w3.org/2000/svg" xml:space="preserve" width="166px" height="36px" version="1.1" style="shape-rendering:geometricPrecision; text-rendering:geometricPrecision; image-rendering:optimizeQuality; fill-rule:evenodd; clip-rule:evenodd"
viewBox="0 0 166 36"
 xmlns:xlink="http://www.w3.org/1999/xlink">
 <defs>
  <style type="text/css">
   <![CDATA[
    .fil0 {fill:#1270B8;fill-rule:nonzero}
    .fil3 {fill:#1A9849;fill-rule:nonzero}
    .fil4 {fill:#3C312A;fill-rule:nonzero}
    .fil1 {fill:#E4A31C;fill-rule:nonzero}
    .fil2 {fill:#FF5F3B;fill-rule:nonzero}
   ]]>
  </style>
 </defs>
 <g id="Layer_x0020_1">
  <metadata id="CorelCorpID_0Corel-Layer"/>
  <g id="_1907674892224">
   <path class="fil0" d="M71.11 18.42c0,-2.45 0.44,-4.65 1.32,-6.61 0.88,-1.96 2.07,-3.62 3.58,-4.99 1.51,-1.37 3.26,-2.42 5.25,-3.15 2,-0.73 4.11,-1.1 6.35,-1.1 1.56,0 3.15,0.15 4.77,0.45 1.63,0.3 3.24,0.85 4.84,1.63l-1.33 6.89c-1.26,-0.69 -2.51,-1.2 -3.74,-1.55 -1.24,-0.34 -2.37,-0.51 -3.4,-0.51 -1.25,0 -2.37,0.2 -3.36,0.61 -0.99,0.41 -1.83,1 -2.52,1.77 -0.69,0.78 -1.21,1.72 -1.58,2.82 -0.36,1.11 -0.55,2.35 -0.55,3.74 0,1.4 0.19,2.65 0.55,3.75 0.37,1.11 0.89,2.05 1.58,2.82 0.69,0.78 1.53,1.36 2.52,1.77 0.99,0.41 2.11,0.61 3.36,0.61 1.03,0 2.16,-0.17 3.4,-0.51 1.23,-0.35 2.48,-0.86 3.74,-1.55l1.33 6.88c-1.6,0.78 -3.21,1.31 -4.84,1.59 -1.62,0.28 -3.21,0.42 -4.77,0.42 -2.24,0 -4.35,-0.36 -6.35,-1.09 -1.99,-0.73 -3.74,-1.76 -5.25,-3.12 -1.51,-1.35 -2.7,-3.01 -3.58,-4.96 -0.88,-1.95 -1.32,-4.16 -1.32,-6.61z"/>
   <path class="fil1" d="M158.6 11.04c-0.59,-0.26 -1.27,-0.52 -2.06,-0.78 -0.78,-0.27 -1.59,-0.51 -2.45,-0.72 -0.86,-0.22 -1.72,-0.4 -2.6,-0.53 -0.87,-0.14 -1.69,-0.2 -2.47,-0.2 -1.34,0 -2.4,0.16 -3.16,0.51 -0.76,0.34 -1.14,0.92 -1.14,1.74 0,0.39 0.14,0.73 0.4,1.03 0.26,0.29 0.64,0.56 1.12,0.81 0.5,0.25 1.08,0.49 1.76,0.74 0.68,0.23 1.44,0.48 2.27,0.74l1.57 0.49c1.32,0.4 2.5,0.89 3.55,1.45 1.05,0.57 1.94,1.24 2.66,2 0.72,0.77 1.28,1.65 1.66,2.64 0.39,0.99 0.59,2.11 0.59,3.38 0,1.47 -0.24,2.82 -0.71,4.03 -0.46,1.22 -1.18,2.25 -2.18,3.11 -0.99,0.86 -2.25,1.53 -3.79,2 -1.55,0.48 -3.4,0.71 -5.56,0.71 -1.93,0 -3.83,-0.16 -5.74,-0.48 -1.9,-0.3 -3.82,-0.86 -5.75,-1.65l0 -7.1c1.85,0.95 3.65,1.64 5.39,2.08 1.74,0.43 3.45,0.65 5.15,0.65 1.39,0 2.4,-0.22 3.04,-0.67 0.64,-0.44 0.96,-1.05 0.96,-1.85 0,-0.47 -0.12,-0.87 -0.36,-1.21 -0.23,-0.34 -0.61,-0.65 -1.14,-0.94 -0.52,-0.28 -1.21,-0.57 -2.05,-0.86 -0.85,-0.3 -1.87,-0.64 -3.08,-1 -1.2,-0.36 -2.32,-0.82 -3.34,-1.36 -1.03,-0.55 -1.92,-1.21 -2.66,-1.97 -0.75,-0.77 -1.33,-1.66 -1.75,-2.68 -0.43,-1.02 -0.63,-2.18 -0.63,-3.48 0,-1.35 0.23,-2.59 0.7,-3.7 0.48,-1.13 1.2,-2.08 2.17,-2.87 0.98,-0.8 2.22,-1.42 3.72,-1.87 1.5,-0.44 3.27,-0.67 5.35,-0.67 0.81,0 1.68,0.04 2.59,0.11 0.92,0.08 1.86,0.18 2.81,0.33 0.96,0.14 1.9,0.33 2.84,0.55 0.93,0.23 1.81,0.5 2.64,0.82l-0.32 6.67z"/>
   <path class="fil2" d="M19.47 1.3c-2.14,0 -4.06,0.33 -5.76,0.98 -1.7,0.64 -3.14,1.62 -4.33,2.92 -1.19,1.31 -2.1,2.95 -2.73,4.92 -0.64,1.97 -0.95,4.28 -0.95,6.92l0 16.57 9.64 0 0 -16.62c0,-1.48 0.07,-2.78 0.21,-3.94 0.14,-1.15 0.39,-2.12 0.74,-2.92 0.34,-0.8 0.8,-1.4 1.37,-1.82 0.58,-0.42 1.29,-0.63 2.15,-0.63 0.95,0 1.71,0.21 2.29,0.63 0.59,0.42 1.04,1.02 1.36,1.82 0.32,0.8 0.54,1.77 0.66,2.92 0.12,1.16 0.17,2.46 0.17,3.94l0 16.62 8.05 0 0 -16.57c0,-2.66 -0.25,-4.97 -0.76,-6.95 -0.5,-1.96 -1.28,-3.6 -2.33,-4.91 -1.06,-1.31 -2.39,-2.28 -4,-2.92 -1.62,-0.64 -3.54,-0.96 -5.78,-0.96z"/>
   <path class="fil3" d="M116.86 1.45c-2.14,0 -4.06,0.33 -5.76,0.98 -1.7,0.64 -3.14,1.62 -4.33,2.93 -1.19,1.3 -2.1,2.95 -2.74,4.91 -0.63,1.97 -0.94,4.28 -0.94,6.93l0 16.56 9.64 0 0 -7.55 8.95 0 0 7.55 8.04 0 0 -16.56c0,-2.66 -0.25,-4.98 -0.75,-6.95 -0.5,-1.96 -1.28,-3.61 -2.33,-4.91 -1.06,-1.31 -2.39,-2.28 -4,-2.92 -1.62,-0.65 -3.54,-0.97 -5.78,-0.97zm-4.13 16.71l0 -1.01c0,-1.48 0.07,-2.79 0.21,-3.94 0.14,-1.15 0.39,-2.13 0.74,-2.92 0.33,-0.8 0.8,-1.41 1.37,-1.83 0.57,-0.42 1.29,-0.63 2.15,-0.63 0.95,0 1.71,0.21 2.29,0.63 0.58,0.42 1.04,1.03 1.36,1.83 0.32,0.79 0.54,1.77 0.66,2.92 0.11,1.15 0.17,2.46 0.17,3.94l0 1.01 -8.95 0z"/>
   <path class="fil4" d="M52.45 34.7c-2.14,0 -4.05,-0.32 -5.76,-0.94 -1.69,-0.62 -3.14,-1.56 -4.33,-2.81 -1.19,-1.26 -2.1,-2.84 -2.73,-4.72 -0.63,-1.9 -0.95,-4.12 -0.95,-6.66l0 -15.92 9.64 0 0 15.97c0,1.42 0.07,2.68 0.22,3.79 0.14,1.1 0.39,2.04 0.73,2.8 0.34,0.77 0.8,1.35 1.37,1.76 0.58,0.4 1.3,0.6 2.16,0.6 0.94,0 1.71,-0.2 2.29,-0.6 0.58,-0.41 1.03,-0.99 1.36,-1.76 0.31,-0.76 0.53,-1.7 0.65,-2.8 0.12,-1.11 0.17,-2.37 0.17,-3.79l0 -15.97 8.05 0 0 15.92c0,2.56 -0.25,4.78 -0.76,6.68 -0.5,1.89 -1.28,3.46 -2.33,4.72 -1.05,1.26 -2.39,2.19 -4,2.8 -1.62,0.62 -3.54,0.93 -5.78,0.93z"/>
  </g>
 </g>
</svg>
