<?xml version="1.0" encoding="UTF-8"?>
<!DOCTYPE svg PUBLIC "-//W3C//DTD SVG 1.1//EN" "http://www.w3.org/Graphics/SVG/1.1/DTD/svg11.dtd">
<!-- Creator: CorelDRAW 2017 -->
<svg xmlns="http://www.w3.org/2000/svg" xml:space="preserve" width="288px" height="36px" version="1.1" style="shape-rendering:geometricPrecision; text-rendering:geometricPrecision; image-rendering:optimizeQuality; fill-rule:evenodd; clip-rule:evenodd"
viewBox="0 0 288 36"
 xmlns:xlink="http://www.w3.org/1999/xlink">
 <defs>
  <style type="text/css">
   <![CDATA[
    .fil0 {fill:#27AAE2;fill-rule:nonzero}
    .fil1 {fill:#636466;fill-rule:nonzero}
   ]]>
  </style>
 </defs>
 <g id="Layer_x0020_1">
  <metadata id="CorelCorpID_0Corel-Layer"/>
  <path class="fil0" d="M11.56 22.45l5.17 -20.24c0.45,-0.12 1.12,-0.18 2,-0.18 0.88,0 1.64,0.11 2.28,0.32l0.21 0.29 -6.88 23.91c-0.95,0.12 -2.04,0.18 -3.26,0.18 -1.22,0 -2.1,-0.15 -2.62,-0.44 -0.52,-0.3 -0.9,-0.89 -1.14,-1.77l-6.24 -21.88c1.07,-0.48 2,-0.72 2.78,-0.72 0.79,0 1.38,0.19 1.78,0.56 0.41,0.36 0.72,0.96 0.93,1.8l3.21 11.47c0.5,1.83 0.99,3.94 1.46,6.31 0.05,0.26 0.16,0.39 0.32,0.39z"/>
  <path id="1" class="fil0" d="M39.25 8.52c1.14,0 2.35,0.32 3.64,0.96l0 -8.91 0.25 -0.25 1.78 0c0.92,0 1.58,0.21 1.96,0.64 0.38,0.43 0.57,1.18 0.57,2.25l0 18.25c0,1.45 0.33,2.43 1,2.95 -0.1,0.43 -0.29,0.88 -0.59,1.36 -0.3,0.47 -0.61,0.83 -0.95,1.07 -1.54,-0.14 -2.66,-0.85 -3.35,-2.11 -1.4,1.55 -3.1,2.32 -5.09,2.32 -1.03,0 -1.92,-0.22 -2.7,-0.66 -0.77,-0.44 -1.41,-1.06 -1.94,-1.85 -0.52,-0.8 -0.91,-1.77 -1.17,-2.91 -0.27,-1.14 -0.4,-2.42 -0.4,-3.85 0,-1.45 0.19,-2.74 0.56,-3.88 0.36,-1.14 0.86,-2.11 1.49,-2.91 0.63,-0.79 1.37,-1.4 2.21,-1.83 0.85,-0.43 1.76,-0.64 2.73,-0.64zm0.43 14.72c1.23,0 2.3,-0.6 3.21,-1.78l0 -8.34c-0.53,-0.34 -1.03,-0.59 -1.5,-0.77 -0.48,-0.18 -0.92,-0.27 -1.32,-0.27 -0.93,0 -1.67,0.49 -2.23,1.46 -0.56,0.98 -0.84,2.41 -0.84,4.32 0,1.85 0.25,3.21 0.75,4.08 0.5,0.86 1.14,1.3 1.93,1.3z"/>
  <path id="2" class="fil0" d="M23.4 6.05c0,-0.76 0.27,-1.41 0.81,-1.95 0.55,-0.55 1.2,-0.82 1.97,-0.82 0.76,0 1.42,0.27 1.96,0.82 0.54,0.54 0.81,1.19 0.81,1.95 0,0.77 -0.27,1.42 -0.81,1.97 -0.54,0.54 -1.2,0.82 -1.96,0.82 -0.77,0 -1.42,-0.28 -1.97,-0.82 -0.54,-0.55 -0.81,-1.2 -0.81,-1.97zm0.57 5.53l4.45 0 0 14.97 -4.45 0 0 -14.97z"/>
  <path id="3" class="fil0" d="M52.4 3.31l4.53 0 0 10.02c0.81,-0.7 1.56,-1.21 2.26,-1.52 0.69,-0.32 1.49,-0.48 2.4,-0.48 1.57,0 2.79,0.57 3.67,1.7 0.89,1.13 1.33,2.7 1.33,4.71l0 8.81 -4.53 0 0 -8.02c0,-0.97 -0.24,-1.78 -0.73,-2.43 -0.49,-0.66 -1.08,-0.99 -1.79,-0.99 -0.91,0 -1.57,0.38 -1.99,1.14 -0.41,0.75 -0.62,1.93 -0.62,3.53l0 6.77 -4.53 0 0 -23.24z"/>
  <path id="4" class="fil0" d="M97.25 26.55l0 -2.56 -0.07 0c-0.69,1 -1.39,1.73 -2.09,2.18 -0.71,0.44 -1.58,0.67 -2.62,0.67 -1.75,0 -3.24,-0.76 -4.46,-2.27 -1.23,-1.5 -1.84,-3.33 -1.84,-5.5 0,-2.13 0.65,-3.96 1.96,-5.49 1.31,-1.52 2.86,-2.28 4.65,-2.28 0.86,0 1.62,0.19 2.31,0.56 0.68,0.38 1.4,0.97 2.16,1.79l0 -2.07 4.46 0 0 14.97 -4.46 0zm-3.26 -10.8c-0.88,0 -1.61,0.35 -2.2,1.05 -0.58,0.71 -0.88,1.59 -0.88,2.65 0,1 0.28,1.8 0.84,2.41 0.56,0.61 1.3,0.91 2.21,0.91 0.88,0 1.63,-0.35 2.25,-1.05 0.63,-0.7 0.94,-1.55 0.94,-2.55 0,-0.92 -0.31,-1.72 -0.94,-2.4 -0.62,-0.68 -1.36,-1.02 -2.22,-1.02z"/>
  <polygon id="5" class="fil0" points="106.37,3.31 110.83,3.31 110.83,26.55 106.37,26.55 "/>
  <path id="6" class="fil0" d="M125.33 26.55l0 -2.56 -0.07 0c-0.7,1 -1.39,1.73 -2.1,2.18 -0.71,0.44 -1.58,0.67 -2.62,0.67 -1.75,0 -3.23,-0.76 -4.45,-2.27 -1.23,-1.5 -1.85,-3.33 -1.85,-5.5 0,-2.13 0.66,-3.96 1.96,-5.49 1.31,-1.52 2.86,-2.28 4.66,-2.28 0.85,0 1.62,0.19 2.3,0.56 0.68,0.38 1.41,0.97 2.17,1.79l0 -2.07 4.45 0 0 14.97 -4.45 0zm-3.26 -10.8c-0.88,0 -1.61,0.35 -2.2,1.05 -0.59,0.71 -0.89,1.59 -0.89,2.65 0,1 0.28,1.8 0.84,2.41 0.57,0.61 1.3,0.91 2.21,0.91 0.88,0 1.64,-0.35 2.26,-1.05 0.62,-0.7 0.93,-1.55 0.93,-2.55 0,-0.92 -0.31,-1.72 -0.93,-2.4 -0.62,-0.68 -1.37,-1.02 -2.22,-1.02z"/>
  <path id="7" class="fil0" d="M160.52 26.55l0 -2.56 -0.07 0c-0.7,1 -1.39,1.73 -2.1,2.18 -0.7,0.44 -1.58,0.67 -2.62,0.67 -1.74,0 -3.23,-0.76 -4.45,-2.27 -1.23,-1.5 -1.84,-3.33 -1.84,-5.5 0,-2.13 0.65,-3.96 1.96,-5.49 1.3,-1.52 2.85,-2.28 4.65,-2.28 0.85,0 1.62,0.19 2.3,0.56 0.69,0.38 1.41,0.97 2.17,1.79l0 -2.07 4.46 0 0 14.97 -4.46 0zm-3.26 -10.8c-0.88,0 -1.61,0.35 -2.2,1.05 -0.59,0.71 -0.88,1.59 -0.88,2.65 0,1 0.28,1.8 0.83,2.41 0.57,0.61 1.31,0.91 2.21,0.91 0.88,0 1.64,-0.35 2.26,-1.05 0.63,-0.7 0.93,-1.55 0.93,-2.55 0,-0.92 -0.3,-1.72 -0.93,-2.4 -0.62,-0.68 -1.36,-1.02 -2.22,-1.02z"/>
  <path id="8" class="fil0" d="M70.88 30.47l0.87 0.09c1.28,0 2.17,-0.66 2.69,-1.95l0.51 -1.31 -6 -16.94 4.91 0 2.85 9.84 0.2 0.94 0.08 0 3.24 -10.78 4.92 0 -6.87 19.5c-0.27,0.66 -0.55,1.23 -0.84,1.71 -0.3,0.47 -0.66,0.92 -1.09,1.33 -0.89,0.84 -2.13,1.26 -3.73,1.26 -0.5,0 -1.25,-0.12 -2.26,-0.37l0.52 -3.32z"/>
  <path id="9" class="fil0" d="M134.15 30.47l0.87 0.09c1.28,0 2.17,-0.66 2.68,-1.95l0.52 -1.31 -6 -16.94 4.91 0 2.85 9.84 0.19 0.94 0.09 0 3.24 -10.78 4.92 0 -6.87 19.5c-0.27,0.66 -0.55,1.23 -0.85,1.71 -0.29,0.47 -0.66,0.92 -1.08,1.33 -0.89,0.84 -2.13,1.26 -3.73,1.26 -0.5,0 -1.25,-0.12 -2.26,-0.37l0.52 -3.32z"/>
  <path id="10" class="fil1" d="M179 11.9c1.14,0 2.08,0.45 2.84,1.36 0.75,0.91 1.13,2.17 1.13,3.78 0,2.57 -0.91,4.89 -2.72,6.94 -1.81,2.05 -3.72,3.07 -5.75,3.07 -1.24,0 -2.25,-0.4 -3.01,-1.22 -0.76,-0.81 -1.14,-1.92 -1.14,-3.32 0,-2.44 0.7,-4.69 2.09,-6.76 1.76,-2.56 3.94,-3.85 6.56,-3.85zm-1.49 1.32c-0.98,0 -1.94,0.71 -2.86,2.12 -0.92,1.4 -1.37,3.35 -1.37,5.83 0,1.51 0.28,2.7 0.85,3.57 0.41,0.64 0.97,0.96 1.66,0.96 0.97,0 1.86,-0.61 2.66,-1.81 1.02,-1.57 1.53,-3.51 1.53,-5.83 0,-1.74 -0.23,-2.98 -0.7,-3.73 -0.47,-0.74 -1.06,-1.11 -1.77,-1.11z"/>
  <path id="11" class="fil1" d="M185.19 13.04l4.16 0c0.68,-2.9 1.47,-5.05 2.35,-6.47 0.88,-1.42 2.03,-2.53 3.44,-3.35 1.42,-0.82 2.75,-1.23 4.01,-1.23 0.7,0 1.24,0.15 1.6,0.43 0.36,0.28 0.54,0.6 0.54,0.99 0,0.35 -0.12,0.64 -0.37,0.87 -0.24,0.23 -0.56,0.35 -0.95,0.35 -0.41,0 -1.17,-0.12 -2.3,-0.36 -0.55,-0.11 -0.99,-0.17 -1.3,-0.17 -0.77,0 -1.46,0.47 -2.08,1.41 -0.61,0.95 -1.1,2.22 -1.47,3.83l-0.91 3.7 4.63 0 -0.28 1.25 -4.66 0 -2.74 11.12c-0.84,3.37 -2.19,5.92 -4.06,7.66 -1.86,1.74 -3.88,2.61 -6.06,2.61 -0.73,0 -1.28,-0.15 -1.66,-0.42 -0.38,-0.29 -0.57,-0.63 -0.57,-1.05 0,-0.36 0.13,-0.64 0.4,-0.85 0.26,-0.21 0.63,-0.32 1.12,-0.32 0.24,0 0.6,0.03 1.07,0.09 0.82,0.11 1.6,0.16 2.34,0.16 1.14,0 1.98,-0.27 2.5,-0.81 0.52,-0.55 1.04,-1.86 1.57,-3.97l3.53 -14.22 -4.16 0 0.31 -1.25z"/>
  <path id="12" class="fil1" d="M222.13 1.99l0.25 0.25 0 24.24c-0.74,0.17 -1.66,0.25 -2.78,0.25 -1.12,0 -2.09,-0.06 -2.92,-0.18l-6.56 -13.79c-0.95,-2.09 -1.66,-3.76 -2.14,-4.99l-0.14 0.03c0.26,3.35 0.39,6.59 0.39,9.7l0 9.05c-0.66,0.12 -1.42,0.18 -2.26,0.18 -0.85,0 -1.58,-0.06 -2.2,-0.18l0 -24.27c0.69,-0.17 1.6,-0.25 2.71,-0.25 1.12,0 2.09,0.06 2.93,0.18l6.48 13.79 2.32 5.28 0.11 -0.04c-0.24,-3.44 -0.36,-6.7 -0.36,-9.76l0 -6.53c0,-1.07 0.2,-1.83 0.61,-2.28 0.4,-0.45 1.08,-0.68 2.03,-0.68l1.53 0z"/>
  <path id="13" class="fil1" d="M241.38 20.14l-10.66 0c0.06,0.96 0.38,1.74 0.95,2.34 0.57,0.6 1.24,0.9 2.01,0.9 1.36,0 2.44,-0.62 3.22,-1.85l4.09 1.36c-1.52,2.65 -3.88,3.98 -7.08,3.98 -2.36,0 -4.23,-0.71 -5.62,-2.14 -1.4,-1.43 -2.1,-3.35 -2.1,-5.76 0,-2.17 0.73,-3.99 2.2,-5.46 1.47,-1.48 3.28,-2.21 5.42,-2.21 2.16,0 3.96,0.77 5.41,2.32 1.44,1.55 2.16,3.48 2.16,5.8l0 0.72zm-10.66 -3l6.06 0c-0.42,-1.87 -1.38,-2.81 -2.89,-2.81 -0.86,0 -1.58,0.24 -2.15,0.73 -0.56,0.49 -0.9,1.19 -1.02,2.08z"/>
  <path id="14" class="fil1" d="M249.08 11.58l0 2.18 0.07 0c0.65,-0.86 1.32,-1.48 2.02,-1.87 0.7,-0.4 1.55,-0.59 2.53,-0.59 1.79,0 3.31,0.78 4.57,2.34 1.26,1.57 1.89,3.47 1.89,5.71 0,2.06 -0.61,3.82 -1.83,5.28 -1.23,1.47 -2.68,2.21 -4.36,2.21 -1.03,0 -1.9,-0.22 -2.59,-0.65 -0.7,-0.43 -1.42,-1.12 -2.16,-2.06l-0.07 0 0 9.02 -4.53 0 0 -21.57 4.46 0zm6.41 7.74c0,-0.98 -0.31,-1.81 -0.94,-2.52 -0.62,-0.7 -1.37,-1.05 -2.24,-1.05 -0.86,0 -1.58,0.35 -2.19,1.04 -0.6,0.69 -0.9,1.53 -0.9,2.53 0,0.96 0.31,1.78 0.94,2.46 0.64,0.69 1.41,1.03 2.31,1.03 0.88,0 1.6,-0.33 2.17,-0.97 0.57,-0.65 0.85,-1.5 0.85,-2.52z"/>
  <path id="15" class="fil1" d="M273.34 26.55l0 -2.56 -0.07 0c-0.69,1 -1.39,1.73 -2.09,2.18 -0.71,0.44 -1.59,0.67 -2.62,0.67 -1.75,0 -3.24,-0.76 -4.46,-2.27 -1.23,-1.5 -1.84,-3.33 -1.84,-5.5 0,-2.13 0.65,-3.96 1.96,-5.49 1.31,-1.52 2.86,-2.28 4.65,-2.28 0.86,0 1.62,0.19 2.31,0.56 0.68,0.38 1.4,0.97 2.16,1.79l0 -2.07 4.46 0 0 14.97 -4.46 0zm-3.26 -10.8c-0.88,0 -1.61,0.35 -2.2,1.05 -0.58,0.71 -0.88,1.59 -0.88,2.65 0,1 0.28,1.8 0.84,2.41 0.56,0.61 1.3,0.91 2.21,0.91 0.88,0 1.63,-0.35 2.25,-1.05 0.63,-0.7 0.94,-1.55 0.94,-2.55 0,-0.92 -0.31,-1.72 -0.94,-2.4 -0.62,-0.68 -1.36,-1.02 -2.22,-1.02z"/>
  <polygon id="16" class="fil1" points="282.46,3.31 286.92,3.31 286.92,26.55 282.46,26.55 "/>
 </g>
</svg>
