<?xml version="1.0" encoding="UTF-8"?>
<!DOCTYPE svg PUBLIC "-//W3C//DTD SVG 1.1//EN" "http://www.w3.org/Graphics/SVG/1.1/DTD/svg11.dtd">
<!-- Creator: CorelDRAW 2017 -->
<svg xmlns="http://www.w3.org/2000/svg" xml:space="preserve" width="337px" height="44px" version="1.1" style="shape-rendering:geometricPrecision; text-rendering:geometricPrecision; image-rendering:optimizeQuality; fill-rule:evenodd; clip-rule:evenodd"
viewBox="0 0 337 44"
 xmlns:xlink="http://www.w3.org/1999/xlink">
 <defs>
  <style type="text/css">
   <![CDATA[
    .fil4 {fill:none}
    .fil1 {fill:#6E6E6E}
    .fil0 {fill:#F49000}
    .fil2 {fill:#6E6E6E;fill-rule:nonzero}
    .fil3 {fill:#7F7B7A;fill-rule:nonzero}
   ]]>
  </style>
 </defs>
 <g id="Layer_x0020_1">
  <metadata id="CorelCorpID_0Corel-Layer"/>
  <g id="_2364510779536">
   <polygon class="fil0" points="68.66,3.52 51.14,3.52 27.09,37.46 44.41,37.46 "/>
   <path class="fil1" d="M2.86 3.52l17.53 0c8.02,11.31 16.03,22.63 24.05,33.94 -4.45,4.29 -14.29,3.75 -17.33,0l-24.25 -33.94z"/>
   <polygon class="fil2" points="70.27,25.24 72.81,25.24 66.65,39.11 64.61,39.11 58.45,25.24 61.05,25.24 65.66,35.95 "/>
   <polygon id="1" class="fil2" points="74.13,39.11 74.13,25.24 76.64,25.24 76.64,39.11 "/>
   <path id="2" class="fil2" d="M84.32 39.28c-1.07,0 -2.06,-0.14 -2.99,-0.42 -0.92,-0.29 -1.71,-0.7 -2.36,-1.23l0.86 -1.83c0.67,0.5 1.37,0.88 2.11,1.12 0.73,0.24 1.53,0.36 2.4,0.36 0.95,0 1.7,-0.17 2.22,-0.51 0.53,-0.34 0.79,-0.81 0.79,-1.42 0,-0.52 -0.24,-0.92 -0.73,-1.2 -0.49,-0.28 -1.29,-0.54 -2.4,-0.79 -1.74,-0.38 -3,-0.86 -3.79,-1.46 -0.79,-0.6 -1.19,-1.47 -1.19,-2.61 0,-0.82 0.22,-1.55 0.66,-2.18 0.44,-0.64 1.07,-1.14 1.88,-1.5 0.81,-0.37 1.75,-0.55 2.81,-0.55 0.97,0 1.89,0.15 2.77,0.44 0.87,0.29 1.59,0.7 2.15,1.22l-0.84 1.83c-1.23,-0.99 -2.59,-1.48 -4.08,-1.48 -0.9,0 -1.6,0.18 -2.12,0.55 -0.52,0.37 -0.78,0.88 -0.78,1.51 0,0.55 0.23,0.96 0.69,1.25 0.46,0.29 1.25,0.55 2.36,0.8 1.16,0.27 2.1,0.57 2.82,0.88 0.73,0.32 1.29,0.73 1.67,1.23 0.39,0.5 0.59,1.13 0.59,1.88 0,0.83 -0.22,1.56 -0.66,2.18 -0.44,0.61 -1.08,1.09 -1.91,1.43 -0.83,0.33 -1.81,0.5 -2.93,0.5z"/>
   <polygon id="3" class="fil2" points="92.15,39.11 92.15,25.24 94.66,25.24 94.66,39.11 "/>
   <path id="4" class="fil2" d="M103.79 39.28c-1.33,0 -2.5,-0.28 -3.49,-0.86 -0.99,-0.58 -1.75,-1.41 -2.29,-2.48 -0.54,-1.07 -0.81,-2.33 -0.81,-3.79 0,-1.44 0.27,-2.7 0.8,-3.77 0.53,-1.07 1.29,-1.89 2.28,-2.46 0.99,-0.57 2.16,-0.86 3.51,-0.86 1.35,0 2.52,0.29 3.51,0.86 0.99,0.57 1.75,1.39 2.27,2.46 0.53,1.07 0.79,2.33 0.79,3.77 0,1.46 -0.27,2.72 -0.8,3.79 -0.53,1.07 -1.29,1.9 -2.27,2.48 -0.99,0.58 -2.15,0.86 -3.5,0.86zm0 -2c1.28,0 2.28,-0.44 2.99,-1.33 0.72,-0.88 1.07,-2.15 1.07,-3.8 0,-1.63 -0.35,-2.89 -1.07,-3.77 -0.71,-0.87 -1.71,-1.31 -2.99,-1.31 -1.28,0 -2.28,0.43 -2.99,1.3 -0.71,0.87 -1.07,2.13 -1.07,3.78 0,1.65 0.36,2.92 1.07,3.8 0.71,0.89 1.71,1.33 2.99,1.33z"/>
   <polygon id="5" class="fil2" points="122.23,25.24 124.59,25.24 124.59,39.11 122.72,39.11 115.26,29.39 115.26,39.11 112.93,39.11 112.93,25.24 114.79,25.24 122.23,34.94 "/>
   <polygon id="6" class="fil2" points="132.92,39.11 132.92,25.24 142.18,25.24 142.18,27.22 135.37,27.22 135.37,31.06 141.77,31.06 141.77,33.05 135.37,33.05 135.37,37.12 142.18,37.12 142.18,39.11 "/>
   <path id="7" class="fil2" d="M144.49 25.24l5.09 0c2.27,0 4.03,0.6 5.28,1.81 1.25,1.21 1.87,2.91 1.87,5.1 0,2.21 -0.62,3.92 -1.87,5.14 -1.25,1.21 -3.01,1.82 -5.28,1.82l-5.09 0 0 -13.87zm4.94 11.82c3.18,0 4.78,-1.63 4.78,-4.91 0,-3.24 -1.6,-4.87 -4.78,-4.87l-2.43 0 0 9.78 2.43 0z"/>
   <path id="8" class="fil2" d="M165.01 39.28c-1.9,0 -3.34,-0.49 -4.32,-1.47 -0.98,-0.98 -1.47,-2.42 -1.47,-4.31l0 -8.26 2.47 0 0 8.39c0,1.2 0.28,2.1 0.83,2.72 0.56,0.62 1.39,0.93 2.49,0.93 1.08,0 1.9,-0.31 2.46,-0.94 0.56,-0.62 0.85,-1.52 0.85,-2.71l0 -8.39 2.46 0 0 8.26c0,1.88 -0.49,3.32 -1.47,4.3 -0.99,0.99 -2.42,1.48 -4.3,1.48z"/>
   <path id="9" class="fil2" d="M179.96 39.28c-1.36,0 -2.55,-0.29 -3.57,-0.87 -1.02,-0.59 -1.8,-1.42 -2.34,-2.49 -0.54,-1.07 -0.82,-2.33 -0.82,-3.77 0,-1.43 0.28,-2.68 0.82,-3.75 0.54,-1.07 1.32,-1.89 2.34,-2.47 1.02,-0.58 2.21,-0.87 3.57,-0.87 0.93,0 1.81,0.15 2.63,0.44 0.82,0.29 1.51,0.7 2.05,1.22l-0.81 1.83c-0.63,-0.51 -1.24,-0.88 -1.86,-1.1 -0.61,-0.23 -1.27,-0.34 -1.97,-0.34 -1.34,0 -2.37,0.43 -3.1,1.3 -0.73,0.87 -1.1,2.12 -1.1,3.74 0,1.64 0.36,2.9 1.09,3.77 0.72,0.88 1.76,1.32 3.11,1.32 0.7,0 1.36,-0.12 1.97,-0.34 0.62,-0.23 1.23,-0.6 1.86,-1.1l0.81 1.83c-0.54,0.52 -1.23,0.92 -2.05,1.22 -0.82,0.29 -1.7,0.43 -2.63,0.43z"/>
   <path id="10" class="fil2" d="M197.31 39.11l-1.38 -3.26 -6.76 0 -1.4 3.26 -2.53 0 6.26 -13.87 2.04 0 6.28 13.87 -2.51 0zm-7.3 -5.2l5.09 0 -2.55 -5.95 -2.54 5.95z"/>
   <polygon id="11" class="fil2" points="202.85,39.11 202.85,27.3 198.34,27.3 198.34,25.24 209.91,25.24 209.91,27.3 205.38,27.3 205.38,39.11 "/>
   <polygon id="12" class="fil2" points="211.64,39.11 211.64,25.24 214.14,25.24 214.14,39.11 "/>
   <path id="13" class="fil2" d="M223.28 39.28c-1.33,0 -2.5,-0.28 -3.49,-0.86 -0.99,-0.58 -1.75,-1.41 -2.29,-2.48 -0.54,-1.07 -0.81,-2.33 -0.81,-3.79 0,-1.44 0.27,-2.7 0.8,-3.77 0.53,-1.07 1.29,-1.89 2.28,-2.46 0.99,-0.57 2.16,-0.86 3.51,-0.86 1.35,0 2.52,0.29 3.51,0.86 0.99,0.57 1.75,1.39 2.27,2.46 0.53,1.07 0.79,2.33 0.79,3.77 0,1.46 -0.27,2.72 -0.8,3.79 -0.53,1.07 -1.29,1.9 -2.27,2.48 -0.99,0.58 -2.15,0.86 -3.5,0.86zm0 -2c1.28,0 2.28,-0.44 2.99,-1.33 0.72,-0.88 1.07,-2.15 1.07,-3.8 0,-1.63 -0.35,-2.89 -1.07,-3.77 -0.71,-0.87 -1.71,-1.31 -2.99,-1.31 -1.28,0 -2.28,0.43 -2.99,1.3 -0.72,0.87 -1.07,2.13 -1.07,3.78 0,1.65 0.35,2.92 1.07,3.8 0.71,0.89 1.71,1.33 2.99,1.33z"/>
   <polygon id="14" class="fil2" points="241.72,25.24 244.08,25.24 244.08,39.11 242.21,39.11 234.75,29.39 234.75,39.11 232.41,39.11 232.41,25.24 234.28,25.24 241.72,34.94 "/>
   <path id="15" class="fil2" d="M263.96 31.61l0 6.66c-0.64,0.31 -1.4,0.56 -2.3,0.74 -0.89,0.18 -1.8,0.27 -2.74,0.27 -1.42,0 -2.66,-0.28 -3.71,-0.85 -1.05,-0.57 -1.85,-1.39 -2.41,-2.46 -0.55,-1.06 -0.83,-2.34 -0.83,-3.82 0,-1.45 0.28,-2.71 0.83,-3.78 0.56,-1.06 1.35,-1.88 2.38,-2.45 1.03,-0.57 2.24,-0.86 3.63,-0.86 0.97,0 1.88,0.14 2.73,0.43 0.85,0.29 1.56,0.69 2.13,1.21l-0.86 1.83c-0.65,-0.51 -1.28,-0.87 -1.9,-1.09 -0.63,-0.22 -1.31,-0.33 -2.04,-0.33 -1.43,0 -2.51,0.43 -3.24,1.28 -0.73,0.86 -1.1,2.11 -1.1,3.76 0,1.7 0.38,2.99 1.13,3.85 0.75,0.86 1.87,1.3 3.36,1.3 0.91,0 1.8,-0.13 2.68,-0.37l0 -3.51 -2.99 0 0 -1.81 5.25 0z"/>
   <path id="16" class="fil2" d="M278.17 39.11l-2.65 0 -1.77 -4.62c-0.15,-0.43 -0.39,-0.73 -0.72,-0.9 -0.32,-0.16 -0.74,-0.25 -1.26,-0.25l-2.51 0 0 5.77 -2.48 0 0 -13.87 5.92 0c1.57,0 2.76,0.34 3.58,1.03 0.82,0.69 1.22,1.67 1.22,2.96 0,0.92 -0.24,1.71 -0.72,2.35 -0.49,0.64 -1.18,1.1 -2.08,1.37 0.82,0.17 1.41,0.74 1.77,1.72l1.7 4.44zm-5.82 -7.72c0.95,0 1.65,-0.17 2.1,-0.52 0.46,-0.35 0.68,-0.89 0.68,-1.6 0,-0.7 -0.22,-1.23 -0.67,-1.57 -0.44,-0.34 -1.15,-0.52 -2.11,-0.52l-3.13 0 0 4.21 3.13 0z"/>
   <path id="17" class="fil2" d="M286.46 39.28c-1.33,0 -2.5,-0.28 -3.49,-0.86 -0.99,-0.58 -1.75,-1.41 -2.29,-2.48 -0.54,-1.07 -0.81,-2.33 -0.81,-3.79 0,-1.44 0.27,-2.7 0.8,-3.77 0.53,-1.07 1.29,-1.89 2.28,-2.46 1,-0.57 2.17,-0.86 3.51,-0.86 1.35,0 2.52,0.29 3.51,0.86 0.99,0.57 1.75,1.39 2.27,2.46 0.53,1.07 0.79,2.33 0.79,3.77 0,1.46 -0.26,2.72 -0.8,3.79 -0.53,1.07 -1.28,1.9 -2.27,2.48 -0.98,0.58 -2.15,0.86 -3.5,0.86zm0 -2c1.29,0 2.28,-0.44 3,-1.33 0.71,-0.88 1.06,-2.15 1.06,-3.8 0,-1.63 -0.35,-2.89 -1.06,-3.77 -0.72,-0.87 -1.71,-1.31 -3,-1.31 -1.28,0 -2.28,0.43 -2.99,1.3 -0.71,0.87 -1.07,2.13 -1.07,3.78 0,1.65 0.36,2.92 1.07,3.8 0.71,0.89 1.71,1.33 2.99,1.33z"/>
   <path id="18" class="fil2" d="M301.31 39.28c-1.9,0 -3.34,-0.49 -4.32,-1.47 -0.98,-0.98 -1.47,-2.42 -1.47,-4.31l0 -8.26 2.47 0 0 8.39c0,1.2 0.28,2.1 0.83,2.72 0.56,0.62 1.39,0.93 2.49,0.93 1.08,0 1.9,-0.31 2.46,-0.94 0.56,-0.62 0.85,-1.52 0.85,-2.71l0 -8.39 2.46 0 0 8.26c0,1.88 -0.49,3.32 -1.47,4.3 -0.99,0.99 -2.42,1.48 -4.3,1.48z"/>
   <path id="19" class="fil2" d="M309.98 25.24l6.01 0c1.49,0 2.64,0.36 3.48,1.08 0.82,0.72 1.24,1.7 1.24,2.95 0,1.25 -0.42,2.23 -1.25,2.96 -0.84,0.73 -2,1.09 -3.47,1.09l-3.5 0 0 5.79 -2.51 0 0 -13.87zm5.71 6.13c0.87,0 1.53,-0.18 1.98,-0.53 0.44,-0.36 0.67,-0.88 0.67,-1.55 0,-0.69 -0.22,-1.21 -0.66,-1.57 -0.44,-0.36 -1.1,-0.54 -1.99,-0.54l-3.2 0 0 4.19 3.2 0z"/>
   <polygon class="fil3" points="325.87,16.59 325.87,17.49 323.29,17.49 323.29,24.23 322.25,24.23 322.25,17.49 319.68,17.49 319.68,16.59 "/>
   <path id="1" class="fil3" d="M326.8 16.59l1.49 0 2.19 6.46 2.18 -6.46 1.48 0 0 7.64 -0.99 0 0 -4.51c0,-0.16 0,-0.41 0.01,-0.78 0.01,-0.36 0.02,-0.74 0.02,-1.15l-2.19 6.44 -1.03 0 -2.2 -6.44 0 0.23c0,0.19 0.01,0.47 0.02,0.86 0.01,0.38 0.01,0.66 0.01,0.84l0 4.51 -0.99 0 0 -7.64z"/>
  </g>
  <rect class="fil4" x="-0.25" y="-0.13" width="337.5" height="44.25"/>
 </g>
</svg>
